<svg width="300" height="541" viewBox="0 0 300 541" fill="none" xmlns="http://www.w3.org/2000/svg">
<mask id="mask0_2088_46" style="mask-type:alpha" maskUnits="userSpaceOnUse" x="0" y="0" width="300" height="541">
<rect width="300" height="541" rx="20" fill="#0D284C"/>
</mask>
<g mask="url(#mask0_2088_46)">
<g opacity="0.3">
<path d="M279.298 280.235C284.92 276.523 290.316 274.237 298.925 271.951C311.453 268.615 322.598 268.423 332.899 271.355C337.374 272.614 343.291 275.565 347.204 278.487C348.115 279.146 350.91 281.422 353.445 283.515C355.981 285.609 359.531 288.355 361.344 289.633C364.357 291.704 369.792 294.743 372.279 295.715L373.31 296.111L359.952 319.246L358.865 318.949C356.259 318.24 350.739 315.749 342.088 311.45C325.685 303.305 315.944 300.034 306.991 299.702C296.19 299.298 288.311 303.132 281.962 311.891C279.62 315.144 278.164 318.412 277.277 322.473C276.223 327.397 276.077 330.692 276.555 340.71C276.928 348.214 276.33 353.668 274.599 358.963C273.48 362.393 268.803 370.494 265.8 374.26C263.062 377.683 258.402 382.712 253.59 387.489C246.194 394.848 240.201 401.096 238.171 403.635L236.117 406.16L218.498 395.988L219.767 394.136C222.775 389.843 226.638 385.678 230.435 382.602C231.596 381.682 235.459 379.008 239.071 376.654C248.555 370.5 251.836 367.457 255.872 361.04C259.481 355.305 261.28 350.18 261.712 344.267C262.02 340.005 261.579 336.636 259.818 329.357C257.727 320.926 257.449 316.989 258.535 311.32C259.57 305.855 260.473 303.659 264.519 296.651C267.776 291.01 268.385 290.07 270.188 288.096C273.063 284.951 275.939 282.437 279.298 280.235Z" fill="#94A3B2"/>
<path d="M262.059 394.399C266.73 389.408 272.243 383.016 274.727 379.745C275.734 378.404 277.848 375.086 279.426 372.353C284.233 364.028 285.419 359.677 286 348.283C286.592 336.928 287.678 332.751 291.934 325.898C294.726 321.347 295.799 320.178 299.348 317.819C304.399 314.407 310.307 313.643 316.894 315.492C320.836 316.641 322.185 317.288 333.472 323.506C344.471 329.591 345.682 330.191 351.051 332.197L352.234 332.615L350.24 336.069L344.545 334.571C329.021 330.412 321.867 329.661 315.189 331.472C311.191 332.543 308.405 333.983 305.461 336.557C300.619 340.753 297.452 346.181 293.109 357.721C289.327 367.83 287.986 370.668 283.824 377.476C279.787 384.124 277.746 386.856 270.428 395.685C265.898 401.121 264.709 402.721 263.232 405.281C260.692 409.679 259.664 413.525 259.848 417.74C259.89 418.758 259.9 419.659 259.872 419.709C259.829 419.783 256.992 418.212 253.563 416.232L247.35 412.645L248.69 410.668C252.215 405.481 255.847 401.084 262.059 394.399Z" fill="#94A3B2"/>
<path d="M-61.4746 109.415C-61.6619 111.557 -61.9668 115.012 -62.1094 117.148C-62.5066 121.936 -63.6585 127.872 -64.8433 131.218C-67.4217 138.553 -72.0752 146.03 -78.6153 153.192C-96.9121 173.362 -118.859 183.416 -136.235 179.676C-139.052 179.054 -144.277 177.116 -145.42 176.246L-145.979 175.82L-157.243 190.606L-154.157 192.717C-147.335 197.353 -139.247 200.589 -130.579 202.223C-121.472 203.911 -115.39 203.935 -103.216 202.389C-92.9643 201.101 -89.1079 200.832 -84.0111 201.148C-71.1962 201.973 -58.7293 206.942 -48.6087 215.254C-35.7977 225.777 -30.7514 238.8 -32.7873 256.168C-33.2839 260.559 -34.9416 269.477 -35.4667 270.64C-36.0762 272.02 -38.0551 279.41 -38.9397 283.626C-42.8083 302.083 -39.5724 319.378 -29.939 331.648C-27.9215 334.268 -27.0593 335.085 -23.201 338.185C-13.9933 345.641 -7.95771 347.674 8.52425 348.848C24.0623 349.945 31.3355 352.039 38.4511 357.5C44.6273 362.246 49.3289 368.874 52.7276 377.476C54.3387 381.63 55.1185 384.188 57.528 393.719C58.571 397.881 60.0026 403.06 60.6831 405.222C64.4426 416.985 71.4785 426.554 82.6568 435.11C89.1377 440.088 95.3736 443.597 103.036 446.549C104.742 447.207 108.561 448.674 111.539 449.821C117.999 452.298 124.328 455.316 128.719 457.98L131.947 459.959L139.251 450.372L137.389 449.234C132.776 446.441 128.672 444.717 117.67 440.984C107.91 437.677 104.78 436.254 101.022 433.391C97.753 430.94 96.6573 429.745 94.492 426.371C91.1775 421.241 89.5169 415.045 88.1294 402.645C86.8379 391.119 86.3495 388.863 84.2648 384.91C81.7712 380.124 79.609 378.116 59.981 362.32C47.5619 352.337 44.2914 350.046 39.0761 347.515C32.4936 344.304 26.6793 342.559 14.1377 340.058C3.01754 337.799 -1.35709 336.43 -8.14277 333.063C-10.9281 331.663 -12.3826 330.675 -17.074 327.141C-23.0663 322.575 -24.5114 321.153 -27.7845 316.495C-36.069 304.772 -38.1881 287.486 -33.145 272.65C-31.6201 268.12 -30.1123 265.14 -25.3468 257.147C-22.4732 252.322 -20.4946 248.619 -19.5472 246.375C-13.2593 231.485 -16.3106 219.741 -30.2541 205.069C-31.7681 203.475 -36.3633 198.972 -40.4651 195.085C-52.3133 183.773 -56.1131 179.595 -58.1906 175.528C-60.6771 170.627 -60.0548 166.492 -56.392 163.791C-51.5936 160.232 -43.8059 161.756 -39.0832 167.198C-38.2161 168.22 -36.6546 170.331 -35.6445 171.903C-29.988 180.702 -28.6031 182.518 -21.1002 191C-11.5268 201.821 -7.26559 207.553 -4.25145 213.657C0.536634 223.438 1.92473 234.837 -0.657616 243.651C-2.31239 249.405 -4.56378 253.782 -9.91553 261.649C-15.8928 270.443 -17.8483 274.484 -18.9808 280.395C-20.1857 286.612 -19.3338 292.552 -16.4262 298.374C-13.6323 304.03 -9.67408 308.369 -3.38086 312.803C4.1444 318.095 9.83553 320.106 22.147 321.751C39.7053 324.146 47.4974 326.876 57.0456 333.99C59.147 335.551 60.9001 336.727 60.9581 336.65C61.2093 336.321 60.5139 333.546 59.8533 332.201C58.0104 328.352 54.9326 324.965 48.917 320.061C43.8724 315.937 42.0227 314.889 31.8317 310.251C20.8393 305.242 15.422 302.398 11.918 299.728C5.67169 294.969 1.51654 288.677 0.134755 281.852C-1.42639 274.21 -0.644218 266.388 3.23966 251.23C8.20519 231.966 8.80826 219.639 5.4987 206.496C2.26308 193.73 -3.2663 183.184 -15.1451 167.119C-20.8602 159.398 -24.6257 153.964 -26.4924 150.778C-33.2841 139.15 -35.9192 128.124 -34.5346 117.194L-34.1762 114.301L-58.8058 95.5359L-59.1752 96.3367C-59.804 97.7414 -61.1398 105.341 -61.4746 109.415Z" fill="#94A3B2"/>
</g>
</g>
</svg>
