<svg width="1331" height="890" viewBox="0 0 1331 890" fill="none" xmlns="http://www.w3.org/2000/svg">
<g opacity="0.3">
<path d="M480.189 -142.466C476.488 -137.677 470.512 -129.956 466.926 -125.113C458.705 -114.376 446.95 -102.065 439.056 -95.9405C421.795 -82.4867 399.403 -71.8503 373.02 -64.8296C299.009 -44.8721 231.734 -54.4269 196.258 -89.7075C190.533 -95.4648 181.1 -108 179.717 -111.8L179.041 -113.657L129.875 -95.7621L133.977 -86.0674C143.086 -64.7128 157.325 -44.7471 175.373 -27.6978C194.38 -9.85018 208.75 -0.545944 239.94 14.3017C266.183 26.8385 275.726 32.0665 287.319 40.5645C316.421 62.0053 338.397 92.733 349.732 127.812C364.079 172.217 356.23 210.74 324.999 248.785C317.145 258.433 299.658 277.037 296.646 278.994C293.104 281.335 277.179 295.833 268.673 304.475C231.445 342.312 212.811 388.203 216.974 431.916C217.77 441.189 218.57 444.436 222.996 457.646C233.47 489.309 244.676 503.303 281.933 531.146C317.073 557.369 331.117 573.389 339.669 597.146C347.083 617.779 348.142 640.63 343.113 666.174C340.614 678.462 338.571 685.708 329.786 711.95C325.929 723.394 321.445 737.839 319.769 743.995C310.789 777.575 312.906 810.941 326.374 848.208C334.157 869.854 343.594 887.647 357.257 906.293C360.296 910.445 367.112 919.726 372.424 926.972C383.96 942.662 394.363 959.435 400.714 972.422L405.352 982.017L437.23 970.415L434.55 964.888C427.869 951.255 420.768 940.931 400.383 915.361C382.293 892.686 377.042 884.557 372.494 872.061C368.476 861.284 367.698 856.786 367.698 845.502C367.648 828.309 373.135 811.108 388.703 779.624C403.169 750.358 405.443 744.272 406.515 731.737C407.885 716.609 405.817 708.565 383.341 641.301C369.102 598.769 364.839 588.368 356.332 574.443C345.623 556.827 334.502 543.854 308.596 518.859C285.69 496.598 277.409 486.703 266.454 468.411C261.985 460.858 260.042 456.306 254.303 440.801C247.05 420.874 245.789 415.309 245.119 399.298C243.32 358.931 264.585 314.76 299.09 287.284C309.59 278.873 317.693 274.107 341.135 262.419C355.279 255.359 365.597 249.595 371.253 245.719C408.789 220.01 419.418 187.55 408.698 131.594C407.536 125.514 403.498 107.86 399.691 92.4163C388.825 47.6049 386.176 31.9309 387.44 19.1357C389.002 3.74617 396.764 -5.1031 409.547 -5.93088C426.325 -7.06532 442.455 8.38724 445.367 28.4594C445.868 32.1974 446.357 39.5738 446.36 44.8316C446.38 74.2754 446.898 80.6846 451.774 112.186C457.998 152.376 459.376 172.433 457.235 191.476C453.705 221.925 439.661 251.037 420.14 267.991C407.472 279.104 395.483 286.05 370.843 296.548C343.314 308.289 332.536 314.889 320.865 327.169C308.558 340.063 301.544 355.429 299.578 373.643C297.597 391.289 300.376 407.585 308.541 427.657C318.32 451.637 328.743 465.055 355.407 487.67C393.357 520.042 407.664 538.357 419.464 569.729C422.069 576.622 424.434 582.072 424.687 581.979C425.784 581.58 428.355 573.951 428.835 569.76C430.323 557.84 428.182 545.137 421.389 524.373C415.71 506.934 412.923 501.637 395.834 475.155C377.41 446.577 368.903 431.601 364.662 419.949C357.102 399.177 356.827 377.954 363.931 359.687C371.854 339.209 385.6 321.871 417.848 291.87C458.903 253.787 479.075 225.504 491.22 189.338C502.967 154.177 505.905 120.788 502.193 64.6707C500.396 37.6906 499.739 19.0925 500.161 8.70733C501.753 -29.1642 512.277 -59.2901 532.176 -83.0751L537.425 -89.384L507.615 -171.286L505.522 -169.951C501.897 -167.579 487.176 -151.608 480.189 -142.466Z" fill="#94A3B2"/>
<path d="M1159.07 115.55C1174.89 105.101 1190.08 98.6668 1214.31 92.2326C1249.58 82.8421 1280.95 82.3005 1309.94 90.5546C1322.54 94.0971 1339.19 102.406 1350.21 110.63C1352.78 112.485 1360.64 118.892 1367.78 124.785C1374.91 130.677 1384.91 138.406 1390.01 142.005C1398.49 147.833 1413.79 156.387 1420.79 159.123L1423.69 160.238L1386.09 225.361L1383.03 224.526C1375.7 222.529 1360.16 215.518 1335.81 203.417C1289.64 180.49 1262.22 171.281 1237.02 170.347C1206.61 169.21 1184.44 180.001 1166.56 204.657C1159.97 213.815 1155.87 223.013 1153.38 234.443C1150.41 248.306 1150 257.581 1151.34 285.779C1152.39 306.902 1150.71 322.253 1145.84 337.159C1142.69 346.812 1129.52 369.616 1121.07 380.218C1113.36 389.851 1100.25 404.009 1086.7 417.453C1065.88 438.169 1049.01 455.756 1043.3 462.904L1037.52 470.012L987.922 441.378L991.492 436.165C999.961 424.08 1010.83 412.357 1021.52 403.698C1024.79 401.108 1035.66 393.583 1045.83 386.956C1072.53 369.633 1081.76 361.068 1093.12 343.005C1103.28 326.861 1108.35 312.437 1109.56 295.791C1110.43 283.793 1109.19 274.31 1104.23 253.82C1098.34 230.091 1097.56 219.007 1100.62 203.051C1103.53 187.666 1106.07 181.486 1117.46 161.76C1126.63 145.882 1128.35 143.234 1133.42 137.677C1141.51 128.826 1149.61 121.749 1159.07 115.55Z" fill="#94A3B2"/>
<path d="M1110.54 436.905C1123.68 422.858 1139.2 404.864 1146.2 395.658C1149.03 391.883 1154.98 382.543 1159.42 374.848C1172.95 351.415 1176.29 339.168 1177.93 307.096C1179.59 275.134 1182.65 263.376 1194.63 244.084C1202.49 231.276 1205.51 227.983 1215.5 221.345C1229.72 211.741 1246.35 209.591 1264.89 214.793C1275.99 218.028 1279.78 219.848 1311.55 237.351C1342.52 254.481 1345.92 256.169 1361.04 261.816L1364.37 262.993L1358.75 272.716L1342.72 268.497C1299.03 256.792 1278.89 254.678 1260.09 259.774C1248.84 262.79 1240.99 266.842 1232.71 274.089C1219.08 285.9 1210.16 301.178 1197.94 333.664C1187.29 362.119 1183.52 370.107 1171.8 389.27C1160.44 407.984 1154.69 415.672 1134.1 440.526C1121.34 455.828 1118 460.331 1113.84 467.536C1106.69 479.917 1103.8 490.744 1104.31 502.608C1104.43 505.474 1104.46 508.009 1104.38 508.149C1104.26 508.359 1096.27 503.935 1086.62 498.362L1069.13 488.265L1072.91 482.702C1082.83 468.099 1093.05 455.722 1110.54 436.905Z" fill="#94A3B2"/>
</g>
</svg>
