<svg width="1840" height="735" viewBox="0 0 1840 735" fill="none" xmlns="http://www.w3.org/2000/svg">
<mask id="mask0_76_35" style="mask-type:alpha" maskUnits="userSpaceOnUse" x="0" y="0" width="1840" height="735">
<rect width="1840" height="735" rx="60" fill="#0D284C"/>
</mask>
<g mask="url(#mask0_76_35)">
<path opacity="0.05" d="M1895.42 -215.423C1889.48 -206.008 1879.9 -190.812 1873.79 -181.562C1860.41 -160.584 1846.53 -132.504 1840.92 -114.995C1828.53 -76.6733 1824.23 -31.2492 1828.69 18.7999C1840.75 159.367 1899.55 269.706 1982.8 308.854C1996.35 315.13 2023.93 323.554 2031.37 323.554L2035 323.554L2035 419.854L2015.67 418.862C1973.06 416.55 1929.62 404.492 1888.82 384.01C1846.04 362.371 1820.93 343.376 1775.67 298.778C1737.51 261.282 1722.48 248.068 1700.51 233.367C1645.18 196.532 1578.28 177.867 1510.56 180.345C1424.83 183.483 1363.22 221.309 1317.13 299.273C1305.41 318.929 1284.26 360.885 1282.78 367.327C1280.96 374.925 1265.93 411.595 1256.35 431.746C1214.39 519.952 1146.83 581.068 1068.71 601.385C1052.19 605.845 1046.08 606.505 1020.47 607.166C959.192 608.983 927.973 598.412 856.451 551.501C789.058 507.233 752.554 493.028 706.138 493.193C665.835 493.358 625.696 505.911 584.732 530.688C565.076 542.746 553.844 550.84 514.036 582.554C496.692 596.429 474.558 613.278 464.978 620.05C412.616 656.72 353.647 674.063 280.804 674.228C238.518 674.394 201.848 669.273 161.049 657.38C151.964 654.737 131.647 648.791 115.79 644.166C81.4331 634.09 45.9197 626.657 19.4911 623.849L2.28897e-06 621.867L5.0182e-06 559.429L11.2322 560.586C38.9822 563.559 61.2814 569.34 118.268 588.501C168.813 605.514 186.156 609.478 210.603 609.478C231.746 609.644 240.005 608.157 259.496 601.054C289.228 590.318 315.491 570.001 360.089 523.255C401.549 479.813 410.634 472.05 431.612 462.304C456.884 450.412 472.08 448.925 602.406 445.456C684.83 443.309 705.478 444.135 734.88 450.081C772.045 457.514 801.447 468.581 860.911 497.653C913.768 523.255 936.067 531.349 974.554 538.782C990.411 541.755 999.496 542.251 1029.89 542.416C1068.87 542.416 1079.28 541.095 1107.36 532.175C1178.22 509.876 1241.15 445.291 1266.92 368.318C1274.85 344.862 1277.99 327.849 1283.44 279.947C1286.74 251.041 1290.21 229.568 1293.35 217.345C1314.16 136.242 1363.55 97.4249 1466.95 80.7419C1478.18 78.9249 1511.22 74.7954 1540.29 71.6571C1624.53 62.2419 1653.27 56.9562 1674.58 46.7151C1700.18 34.3267 1710.59 15.3312 1703.98 -7.29823C1695.39 -37.0303 1658.56 -55.2001 1622.05 -47.6019C1615.28 -46.1153 1602.23 -42.3161 1593.15 -39.0126C1542.27 -20.5126 1530.88 -17.3742 1473.39 -5.97683C1400.05 8.55887 1364.54 18.7999 1332.99 34.4919C1282.61 59.7642 1241.15 102.38 1224.14 146.813C1212.91 175.72 1208.45 200.827 1205.8 250.05C1202.83 305.054 1198.21 327.849 1184.33 355.764C1169.79 385.166 1147.66 406.97 1117.43 421.836C1088.2 436.371 1058.3 441.822 1018.49 440.336C970.92 438.519 941.188 428.938 885.357 397.059C805.576 351.8 764.942 338.586 703.33 337.925C689.786 337.76 678.884 337.099 678.884 336.603C678.884 334.456 690.447 325.206 697.384 321.737C717.04 311.662 740.33 307.367 780.469 306.045C814.165 304.889 825.067 306.376 881.558 319.26C942.509 333.135 973.728 338.42 996.522 338.42C1037.16 338.42 1073.99 325.537 1101.08 301.751C1131.47 275.157 1152.78 240.47 1184.33 165.809C1224.3 70.8312 1260.48 18.1392 1315.32 -25.6331C1368.67 -68.084 1424.5 -94.1822 1523.77 -123.088C1571.51 -136.963 1604.05 -147.535 1621.72 -154.803C1686.14 -181.396 1731.57 -218.562 1760.14 -267.95L1767.74 -280.999L1927.96 -280.999L1926.97 -276.539C1925.16 -268.776 1906.82 -233.263 1895.42 -215.423Z" fill="#94A3B2"/>
</g>
</svg>
