<svg width="30" height="28" viewBox="0 0 30 28" fill="none" xmlns="http://www.w3.org/2000/svg">
<path d="M3.21414 27.4286C2.3617 27.4286 1.54417 27.0951 0.9414 26.5016C0.338632 25.9081 0 25.1031 0 24.2637V3.16484C0 2.32547 0.338632 1.52048 0.9414 0.926959C1.54417 0.333437 2.3617 0 3.21414 0H20.3562C20.6404 0 20.9129 0.111146 21.1138 0.308986C21.3147 0.506827 21.4276 0.775156 21.4276 1.05495C21.4276 1.33473 21.3147 1.60306 21.1138 1.8009C20.9129 1.99874 20.6404 2.10989 20.3562 2.10989H3.21414C2.92999 2.10989 2.65748 2.22104 2.45656 2.41888C2.25564 2.61672 2.14276 2.88505 2.14276 3.16484V24.2637C2.14276 24.5435 2.25564 24.8119 2.45656 25.0097C2.65748 25.2075 2.92999 25.3187 3.21414 25.3187H24.6417C24.9259 25.3187 25.1984 25.2075 25.3993 25.0097C25.6002 24.8119 25.7131 24.5435 25.7131 24.2637V13.7143C25.7131 13.4345 25.826 13.1662 26.0269 12.9683C26.2278 12.7705 26.5004 12.6593 26.7845 12.6593C27.0687 12.6593 27.3412 12.7705 27.5421 12.9683C27.743 13.1662 27.8559 13.4345 27.8559 13.7143V24.2637C27.8559 25.1031 27.5173 25.9081 26.9145 26.5016C26.3117 27.0951 25.4942 27.4286 24.6417 27.4286H3.21414Z" fill="#94A3B2"/>
<path d="M14.6863 18.6798L29.6856 3.9106C29.7852 3.81252 29.8643 3.69607 29.9182 3.56792C29.9721 3.43977 29.9998 3.30241 29.9998 3.1637C29.9998 3.02499 29.9721 2.88763 29.9182 2.75948C29.8643 2.63133 29.7852 2.51488 29.6856 2.4168C29.586 2.31871 29.4678 2.24091 29.3376 2.18783C29.2075 2.13474 29.068 2.10742 28.9271 2.10742C28.7862 2.10742 28.6467 2.13474 28.5166 2.18783C28.3864 2.24091 28.2682 2.31871 28.1686 2.4168L13.9278 16.4412L8.25803 10.8564C8.15842 10.7583 8.04016 10.6805 7.91001 10.6274C7.77986 10.5743 7.64037 10.547 7.49949 10.547C7.35862 10.547 7.21912 10.5743 7.08897 10.6274C6.95882 10.6805 6.84057 10.7583 6.74095 10.8564C6.64134 10.9544 6.56232 11.0709 6.50841 11.199C6.4545 11.3272 6.42676 11.4645 6.42676 11.6033C6.42676 11.742 6.4545 11.8793 6.50841 12.0075C6.56232 12.1356 6.64134 12.2521 6.74095 12.3502L13.1692 18.6798C13.2688 18.7781 13.387 18.856 13.5171 18.9092C13.6473 18.9624 13.7868 18.9898 13.9278 18.9898C14.0687 18.9898 14.2082 18.9624 14.3384 18.9092C14.4686 18.856 14.5868 18.7781 14.6863 18.6798Z" fill="#94A3B2"/>
</svg>
