<svg width="155" height="158" viewBox="0 0 155 158" fill="none" xmlns="http://www.w3.org/2000/svg">
<path d="M6.91868 61.7087C5.26967 66.9885 3.95046 72.2684 3.62066 77.8783C2.30145 96.0278 8.2379 114.837 20.1108 128.697C31.9837 142.556 49.4632 151.136 67.2725 152.126C75.8474 152.786 84.7521 151.466 92.6673 148.826C95.9654 150.806 99.5932 152.456 103.221 154.106C126.637 163.346 130.595 151.796 119.381 132.657C165.224 92.7279 136.531 13.86 72.8792 14.19C72.5494 14.19 72.5494 14.19 72.2196 14.19C52.4314 14.19 34.2923 22.7698 22.0896 36.2994C2.96105 25.7397 -7.92243 33.6595 6.91868 61.7087ZM67.6023 148.826C50.4526 147.176 34.6221 138.267 24.0684 125.067C18.7916 118.467 14.8339 110.877 12.1955 102.958C8.8975 92.7279 8.5677 80.8482 11.2061 68.9685C29.0155 97.6777 61.3361 129.687 90.0289 147.176C83.1031 149.156 75.1878 149.816 67.6023 148.826ZM98.6038 146.516C105.2 143.546 111.136 139.917 116.083 135.297C110.147 139.917 103.881 143.216 96.9548 145.526C70.9004 129.357 32.9731 92.7279 13.1849 62.6987C14.1743 59.7288 15.4935 56.4288 17.1426 53.4589C18.132 58.4088 19.781 63.0287 22.7492 67.3185C33.9625 84.1481 49.4632 84.1481 66.9427 74.5783C82.4435 66.3286 92.6673 62.3687 107.179 72.9284C121.36 83.4881 128.616 106.587 116.083 134.967C119.711 128.367 122.35 120.777 123.669 113.187C126.307 96.6877 122.35 80.1882 109.817 69.9585C93.9865 57.0888 81.454 61.7087 64.6341 69.9585C49.4632 77.5483 37.5903 78.2082 28.3558 64.0186C24.728 58.7388 23.079 51.809 23.079 45.2091C35.2817 29.6996 54.0804 19.7998 75.1878 20.4598C134.552 21.7798 160.277 95.0378 116.413 135.297C117.403 134.637 118.392 133.647 119.381 132.657C129.275 156.746 120.371 159.386 98.6038 146.516ZM21.7598 36.6294C16.483 42.2392 12.1955 49.169 9.55711 55.7689C-1.32638 36.9594 1.31205 29.0396 21.7598 36.6294Z" fill="#0D284C"/>
<path d="M136.201 19.1392C135.871 21.1192 136.201 23.0991 136.861 25.0791C138.839 24.0891 140.159 23.0991 141.478 21.4492C143.457 21.7792 145.436 21.4492 147.414 20.7892C146.755 18.8093 145.436 17.4893 143.787 16.1693C144.116 14.1894 143.787 12.2094 143.127 10.2295C141.148 10.8895 139.829 12.2094 138.51 13.8594C136.531 13.5294 134.552 13.8594 132.573 14.5194C133.233 16.1693 134.222 17.4893 135.212 18.4793C135.541 18.8093 135.871 19.1392 136.201 19.1392Z" fill="#0D284C"/>
<path d="M13.8443 8.90976C13.5145 10.8897 13.5145 12.8696 14.504 14.8496C16.4828 14.1896 17.802 12.8696 19.1212 11.2197C21.1 11.5497 23.0788 11.2197 25.0576 10.5597C24.398 8.57977 23.0788 7.2598 21.4298 5.93984C21.7596 3.95989 21.4298 1.97995 20.7702 0C18.7914 0.659982 17.4722 1.97995 16.153 3.6299C13.8443 3.29991 11.8655 3.6299 9.88672 4.28988C10.8761 6.26983 12.1953 7.91978 13.8443 8.90976Z" fill="#0D284C"/>
<path d="M146.095 136.616C144.116 136.286 142.138 136.616 140.159 137.276C141.148 139.256 142.138 140.576 143.787 141.896C143.457 143.876 143.787 145.856 144.446 147.836C146.425 146.846 147.744 145.856 149.063 144.206C151.042 144.536 153.021 144.206 155 143.546C154.34 141.566 153.021 140.246 151.372 138.926C151.372 138.596 151.372 138.266 151.372 137.606C151.372 136.286 151.372 134.636 150.383 132.986C148.734 133.646 147.414 134.636 146.425 135.626C146.425 135.956 146.095 136.286 146.095 136.616Z" fill="#0D284C"/>
</svg>
