<svg width="1840" height="770" viewBox="0 0 1840 770" fill="none" xmlns="http://www.w3.org/2000/svg">
<path opacity="0.05" d="M-55.4242 -120.424C-49.4777 -111.009 -39.8974 -95.8126 -33.7858 -86.5626C-20.4063 -65.5849 -6.53129 -37.5046 -0.915211 -19.9957C11.4732 18.3257 15.7678 63.7499 11.308 113.799C-0.750023 254.366 -59.5536 364.705 -142.804 403.853C-156.348 410.129 -183.933 418.553 -191.366 418.553L-195 418.553L-195 514.853L-175.674 513.861C-133.058 511.549 -89.6161 499.491 -48.817 479.009C-6.03573 457.37 19.0714 438.375 64.3303 393.777C102.487 356.281 117.518 343.067 139.487 328.366C194.821 291.531 261.719 272.866 329.442 275.344C415.17 278.482 476.781 316.308 522.866 394.272C534.594 413.928 555.737 455.884 557.223 462.326C559.04 469.924 574.071 506.594 583.652 526.745C625.607 614.951 693.165 676.067 771.295 696.384C787.812 700.844 793.924 701.504 819.527 702.165C880.808 703.982 912.027 693.411 983.549 646.5C1050.94 602.232 1087.45 588.027 1133.86 588.192C1174.17 588.357 1214.3 600.911 1255.27 625.687C1274.92 637.745 1286.16 645.839 1325.96 677.553C1343.31 691.428 1365.44 708.277 1375.02 715.049C1427.38 751.719 1486.35 769.062 1559.2 769.228C1601.48 769.393 1638.15 764.272 1678.95 752.379C1688.04 749.736 1708.35 743.79 1724.21 739.165C1758.57 729.089 1794.08 721.656 1820.51 718.848L1840 716.866L1840 654.428L1828.77 655.585C1801.02 658.558 1778.72 664.339 1721.73 683.5C1671.19 700.513 1653.84 704.478 1629.4 704.478C1608.25 704.643 1600 703.156 1580.5 696.053C1550.77 685.317 1524.51 665 1479.91 618.254C1438.45 574.812 1429.37 567.049 1408.39 557.303C1383.12 545.411 1367.92 543.924 1237.59 540.455C1155.17 538.308 1134.52 539.134 1105.12 545.08C1067.96 552.513 1038.55 563.58 979.089 592.652C926.232 618.254 903.933 626.348 865.446 633.781C849.589 636.754 840.504 637.25 810.112 637.415C771.129 637.415 760.723 636.094 732.643 627.174C661.781 604.875 598.848 540.29 573.08 463.317C565.152 439.862 562.013 422.848 556.562 374.946C553.259 346.04 549.79 324.567 546.652 312.344C525.839 231.241 476.451 192.424 373.049 175.741C361.817 173.924 328.781 169.794 299.71 166.656C215.469 157.241 186.728 151.955 165.42 141.714C139.817 129.326 129.411 110.33 136.018 87.7008C144.607 57.9687 181.442 39.7989 217.946 47.3971C224.719 48.8837 237.768 52.6829 246.853 55.9864C297.728 74.4864 309.125 77.6249 366.607 89.0222C439.946 103.558 475.46 113.799 507.009 129.491C557.388 154.763 598.848 197.379 615.862 241.812C627.094 270.719 631.554 295.826 634.196 345.049C637.17 400.053 641.795 422.848 655.67 450.763C670.205 480.165 692.339 501.969 722.567 516.835C751.804 531.37 781.701 536.821 821.509 535.335C869.08 533.518 898.812 523.937 954.643 492.058C1034.42 446.799 1075.06 433.585 1136.67 432.924C1150.21 432.759 1161.12 432.098 1161.12 431.602C1161.12 429.455 1149.55 420.205 1142.62 416.736C1122.96 406.661 1099.67 402.366 1059.53 401.044C1025.83 399.888 1014.93 401.375 958.442 414.259C897.491 428.134 866.272 433.419 843.478 433.419C802.844 433.419 766.009 420.536 738.92 396.75C708.527 370.156 687.219 335.469 655.67 260.808C615.696 165.83 579.522 113.138 524.683 69.3659C471.33 26.9151 415.5 0.816868 316.228 -28.0894C268.491 -41.9644 235.951 -52.5359 218.277 -59.8037C153.857 -86.3975 108.433 -123.563 79.8571 -172.951L72.2589 -186L-87.9643 -186L-86.9733 -181.54C-85.1563 -173.777 -66.8215 -138.263 -55.4242 -120.424Z" fill="#0D284C"/>
</svg>
