<svg width="905" height="454" viewBox="0 0 905 454" fill="none" xmlns="http://www.w3.org/2000/svg">
<path d="M335.837 -501.854C336.1 -495.249 336.515 -484.592 336.911 -478.022C337.563 -463.266 336.361 -444.71 334.052 -434.041C329.046 -410.662 317.77 -386.034 300.621 -361.626C252.697 -292.936 189.713 -253.662 135.291 -258.246C126.465 -259.04 109.782 -262.897 105.961 -265.103L104.092 -266.182L75.5076 -216.672L85.7378 -211.445C108.334 -199.984 134.248 -193.289 161.304 -191.708C189.722 -190.135 208.268 -192.448 244.775 -201.943C275.522 -209.894 287.173 -212.227 302.831 -213.264C342.214 -215.776 382.148 -205.515 416.231 -184.139C459.374 -157.079 479.823 -119.343 480.374 -65.5804C480.569 -51.9935 478.985 -24.1472 477.837 -20.394C476.516 -15.9482 473.359 7.36641 472.303 20.5707C467.692 78.3731 484.284 129.848 518.422 163.485C525.59 170.681 528.536 172.834 541.503 180.774C572.47 199.898 591.658 203.73 642.354 200.842C690.143 198.087 713.128 201.619 736.942 215.482C757.614 227.53 774.524 245.898 788.23 270.796C794.757 282.83 798.129 290.325 809.182 318.447C813.98 330.728 820.359 345.961 823.274 352.286C839.31 386.682 864.479 413.102 901.881 434.81C923.572 447.446 943.945 455.698 968.451 461.694C973.906 463.032 986.117 466.006 995.642 468.335C1016.3 473.353 1036.76 480.073 1051.18 486.474L1061.79 491.24L1080.33 459.14L1074.21 456.4C1059.06 449.691 1045.88 446.045 1010.89 438.98C979.855 432.724 969.761 429.614 957.193 422.358C946.274 416.167 942.469 412.951 934.556 403.514C922.457 389.168 914.985 370.927 905.931 333.656C897.511 299.014 895.145 292.326 887.252 281.089C877.789 267.473 870.417 262.198 804.443 221.73C762.704 196.16 751.843 190.456 734.962 184.785C713.648 177.575 695.247 174.538 656.045 171.833C621.27 169.307 607.403 166.849 585.41 159.246C576.375 156.068 571.557 153.626 555.882 144.689C535.84 133.118 530.883 129.35 519.093 116.429C489.281 83.9305 476.096 32.0452 485.696 -15.1775C488.582 -29.59 492.018 -39.2686 503.435 -65.5142C510.317 -81.3563 514.907 -93.4259 516.922 -100.642C530.295 -148.517 516.426 -183.134 468.216 -222.404C462.981 -226.672 447.222 -238.601 433.207 -248.844C392.691 -278.69 379.483 -289.939 371.568 -301.529C362.082 -315.498 362.371 -328.352 372.485 -338.026C385.726 -350.762 410.057 -349.17 426.57 -334.428C429.61 -331.653 435.192 -325.827 438.882 -321.432C459.547 -296.819 464.475 -291.822 490.645 -268.9C524.036 -239.658 539.254 -223.851 550.817 -206.419C569.217 -178.471 577.882 -144.254 573.44 -116.36C570.635 -98.1646 565.475 -83.9325 552.223 -57.8411C537.424 -28.6792 533.036 -15.5871 531.884 2.88343C530.629 22.3143 535.537 40.0942 546.665 56.7098C557.382 72.8613 571.135 84.5382 592.042 95.5901C617.04 108.777 635.169 112.677 673.336 112.859C727.788 113.271 752.602 118.539 784.474 136.488C791.487 140.423 797.288 143.319 797.435 143.065C798.072 141.961 794.873 133.773 792.336 129.93C785.221 118.915 774.522 109.794 754.278 97.2004C737.297 86.6038 731.251 84.1321 698.383 73.9878C662.928 63.0292 645.308 56.48 633.589 49.7138C612.698 37.6524 597.584 20.0947 590.717 -0.1751C582.986 -22.8692 582.327 -47.0279 588.268 -94.7777C595.909 -155.474 592.952 -193.302 577.75 -232.084C562.921 -269.746 541.964 -299.736 499.506 -344.065C479.082 -365.368 465.49 -380.462 458.56 -389.445C433.334 -422.239 421.012 -454.83 420.981 -488.704L420.948 -497.668L338.573 -545.228L337.758 -542.641C336.388 -538.11 335.273 -514.409 335.837 -501.854Z" fill="#0D284C"/>
<path d="M503.842 -449.243L507.56 -440.189C518.812 -413.198 532.158 -394.736 568.392 -356.492C609.867 -312.618 627.882 -288.516 645.809 -252.689C657.817 -228.772 663.509 -212.351 675.076 -168.646C681.057 -146.057 687.929 -121.481 690.377 -113.954C699.728 -86.0224 710.661 -63.9708 728.072 -37.8401C745.048 -12.5263 755.113 -0.14819 790.493 38.3958C818.285 68.7081 828.01 80.8901 851.674 114.821C863.132 131.061 870.509 140.642 882.598 154.415C887.281 159.837 893.561 167.199 896.549 170.849C899.622 174.548 902.274 177.211 902.47 176.872C903.009 175.937 901.314 163.183 899.423 153.712C897.172 142.901 891.055 126.235 884.604 113.678C872.064 89.1139 862.392 76.0564 826.512 34.8465C794.165 -2.28528 781.437 -20.0513 768.9 -45.4062C749.723 -84.5591 744.503 -116.9 746.544 -184.565C747.515 -216.842 746.115 -233.049 741.025 -250.708C735.764 -268.465 729.708 -279.548 718.271 -292.492C708.516 -303.446 700.58 -310.292 670.278 -333.902C632 -363.701 620.755 -373.251 607.826 -386.943L602.173 -393.038L552.989 -421.207L503.842 -449.243Z" fill="#0D284C"/>
</svg>
