<svg width="910" height="454" viewBox="0 0 910 454" fill="none" xmlns="http://www.w3.org/2000/svg">
<path d="M732.085 -395.162C730.122 -388.849 726.963 -378.663 724.88 -372.419C720.431 -358.334 716.789 -340.1 716.259 -329.197C715.043 -305.319 719.56 -278.611 729.808 -250.597C758.32 -171.843 808.994 -117.606 862.747 -107.949C871.479 -106.431 888.591 -105.839 892.854 -106.981L894.937 -107.539L909.734 -52.3183L898.5 -49.9171C873.707 -44.6952 846.943 -44.9347 820.4 -50.4111C792.543 -56.2459 775.227 -63.2808 742.422 -81.9009C714.78 -97.5393 704.13 -102.807 689.274 -107.862C651.883 -120.482 610.654 -120.906 572.2 -109.08C523.523 -94.1079 494.005 -62.9505 479.558 -11.1622C475.853 1.91138 470.175 29.2186 470.313 33.1411C470.438 37.7773 467.453 61.1145 465.056 74.1423C454.55 131.169 425.201 176.595 383.52 200.25C374.733 205.346 371.33 206.664 356.75 210.976C321.889 221.434 302.363 220.169 254.141 204.258C208.694 189.229 185.579 186.692 158.988 193.918C135.902 200.206 114.814 213.572 95.1308 234.074C85.712 244.008 80.5147 250.375 62.5604 274.678C54.7468 285.299 44.6432 298.361 40.19 303.717C15.7984 332.79 -15.3514 351.796 -57.0971 363.083C-81.3198 369.675 -103.134 372.373 -128.357 371.823C-133.973 371.703 -146.537 371.415 -156.341 371.199C-177.59 370.7 -199.097 371.895 -214.683 374.345L-226.165 376.203L-235.758 340.399L-229.14 339.337C-212.77 336.778 -199.095 336.667 -163.473 338.898C-131.875 340.888 -121.32 340.496 -107.302 336.74C-95.1522 333.586 -90.6446 331.465 -80.5592 324.397C-65.1594 313.672 -53.2208 297.986 -34.8292 264.328C-17.7296 233.046 -13.7129 227.199 -3.18103 218.387C9.48363 207.684 17.9694 204.497 92.1698 182.483C139.105 168.587 151.071 165.888 168.845 164.78C191.299 163.332 209.859 165.161 248.425 172.695C282.669 179.254 296.7 180.469 319.911 178.818C329.461 178.087 334.747 176.975 352.201 172.4C374.554 166.41 380.319 164.054 395.05 154.624C432.258 130.949 458.423 84.2442 461.372 36.1459C462.315 21.4775 461.5 11.2393 457.266 -17.0668C454.719 -34.1502 453.408 -46.9967 453.33 -54.4881C452.803 -104.193 475.16 -134.041 531.89 -159.495C538.052 -162.263 556.361 -169.707 572.55 -175.973C619.41 -194.316 635.079 -201.763 645.724 -210.91C658.502 -221.947 661.55 -234.439 654.285 -246.4C644.791 -262.13 620.877 -266.889 601.111 -256.923C597.456 -255.03 590.557 -250.847 585.855 -247.557C559.524 -229.131 553.471 -225.58 522.26 -210.212C482.438 -190.608 463.647 -179.279 447.967 -165.433C422.961 -143.2 405.734 -112.393 402.805 -84.299C400.806 -65.9973 402.106 -50.9147 408.154 -22.2824C414.9 9.71588 415.751 23.4977 412.084 41.6372C408.266 60.7306 398.924 76.6344 383.874 89.8036C369.342 102.631 353.036 110.351 329.98 115.615C302.422 121.882 283.9 120.957 246.987 111.255C194.284 97.56 168.952 96.2259 133.521 105.314C125.728 107.3 119.375 108.596 119.299 108.312C118.969 107.081 124.178 100 127.624 96.9449C137.347 88.1468 150.043 82.1056 172.856 75.1805C192.001 69.34 198.481 68.5174 232.855 67.2256C269.938 65.8168 288.652 64.051 301.723 60.5486C325.024 54.3051 344.167 41.2573 356.046 23.4555C369.388 3.53585 376.277 -19.6292 382.897 -67.2897C391.225 -127.895 403.873 -163.669 428.594 -197.195C452.665 -229.736 480.67 -253.28 533.155 -285.109C558.397 -300.4 575.432 -311.462 584.45 -318.345C617.305 -343.493 637.642 -371.784 646.44 -404.496L648.792 -413.146L740.669 -437.765L740.786 -435.055C740.937 -430.324 735.88 -407.142 732.085 -395.162Z" fill="#0D284C"/>
<path d="M556.188 -387.825L550.254 -380.043C532.399 -356.883 514.73 -342.505 469.833 -314.942C418.415 -283.297 394.775 -264.679 368.187 -234.713C350.398 -214.718 340.649 -200.33 318.165 -161.108C306.541 -140.837 293.543 -118.878 289.23 -112.24C272.969 -87.6804 256.701 -69.21 233.12 -48.4759C210.171 -28.4184 197.245 -19.0669 153.094 9.00647C118.404 31.093 105.858 40.3429 74.2183 66.9928C58.9473 79.7138 49.3422 87.0589 34.0997 97.2343C28.1732 101.259 20.2018 106.745 16.3709 109.497C12.4453 112.275 9.19454 114.161 9.09302 113.782C8.81384 112.74 13.7519 100.859 18.0305 92.2002C23.0025 82.3403 33.2244 67.8251 42.7058 57.366C61.1763 36.8844 73.8985 26.7752 119.222 -3.74416C160.076 -31.2388 176.969 -45.1051 195.641 -66.3513C224.298 -99.2068 237.711 -129.094 253.253 -194.983C260.669 -226.41 266.215 -241.703 275.703 -257.443C285.38 -273.233 294.099 -282.371 308.496 -291.914C320.753 -299.97 330.191 -304.529 365.571 -319.491C410.258 -338.368 423.591 -344.682 439.623 -354.561L446.661 -358.985L501.459 -373.465L556.188 -387.825Z" fill="#0D284C"/>
</svg>
