<svg width="35" height="40" viewBox="0 0 35 40" fill="none" xmlns="http://www.w3.org/2000/svg">
<path d="M13.8158 2.49991C14.985 2.49973 16.1105 2.94429 16.964 3.74341C17.8175 4.54253 18.3351 5.63637 18.4118 6.80307L18.4211 7.10518V15.5881L28.4458 16.7025C30.1838 16.8957 31.7965 17.7007 32.9956 18.9736C34.1946 20.2466 34.9018 21.9045 34.9908 23.651L35 24.0249V24.6052C35 28.4339 33.5098 32.1122 30.8452 34.8615C28.1805 37.6107 24.5505 39.215 20.7237 39.3346L20.2632 39.342H19.0216C16.3735 39.342 13.7744 38.6284 11.4975 37.2763C9.22058 35.9243 7.35007 33.9837 6.08263 31.6586L5.84132 31.1962L0.606053 20.7257C-0.0571053 19.3994 0.434737 17.6254 1.98211 16.9899C3.90342 16.2033 5.72895 16.056 7.60974 17.012C8.01868 17.2202 8.42026 17.4762 8.81447 17.7746L9.21053 18.0878V7.10518C9.21053 5.88379 9.69572 4.71242 10.5594 3.84877C11.423 2.98511 12.5944 2.49991 13.8158 2.49991ZM3.68421 9.86833C4.17277 9.86833 4.64131 10.0624 4.98678 10.4079C5.33224 10.7533 5.52632 11.2219 5.52632 11.7104C5.52632 12.199 5.33224 12.6675 4.98678 13.013C4.64131 13.3585 4.17277 13.5525 3.68421 13.5525H1.84211C1.35355 13.5525 0.885002 13.3585 0.53954 13.013C0.194078 12.6675 0 12.199 0 11.7104C0 11.2219 0.194078 10.7533 0.53954 10.4079C0.885002 10.0624 1.35355 9.86833 1.84211 9.86833H3.68421ZM25.7895 8.02623C26.259 8.02675 26.7106 8.20653 27.052 8.52884C27.3934 8.85116 27.5989 9.29167 27.6264 9.76038C27.6539 10.2291 27.5014 10.6906 27.2 11.0507C26.8987 11.4107 26.4712 11.6421 26.005 11.6975L25.7895 11.7104H23.9474C23.4779 11.7099 23.0263 11.5301 22.6848 11.2078C22.3434 10.8855 22.138 10.445 22.1105 9.97629C22.083 9.50758 22.2355 9.04606 22.5368 8.68601C22.8382 8.32597 23.2656 8.09458 23.7318 8.03912L23.9474 8.02623H25.7895ZM4.98658 1.19755L6.82868 3.03965C7.16424 3.38708 7.34991 3.8524 7.34572 4.33539C7.34152 4.81838 7.14779 5.28041 6.80624 5.62195C6.4647 5.96349 6.00268 6.15722 5.51969 6.16142C5.03669 6.16562 4.57137 5.97994 4.22395 5.64439L2.38184 3.80228C2.04629 3.45486 1.86061 2.98954 1.86481 2.50654C1.86901 2.02355 2.06274 1.56153 2.40428 1.21999C2.74582 0.878445 3.20785 0.684713 3.69084 0.680516C4.17383 0.676319 4.63915 0.861992 4.98658 1.19755ZM25.2497 1.19755C25.5951 1.54299 25.7891 2.01145 25.7891 2.49991C25.7891 2.98838 25.5951 3.45684 25.2497 3.80228L23.4076 5.64439C23.2377 5.82033 23.0344 5.96066 22.8097 6.05721C22.5849 6.15375 22.3432 6.20457 22.0986 6.20669C21.854 6.20882 21.6115 6.16221 21.3851 6.06959C21.1587 5.97696 20.953 5.84018 20.7801 5.66722C20.6071 5.49426 20.4703 5.28859 20.3777 5.0622C20.2851 4.83581 20.2385 4.59324 20.2406 4.34865C20.2427 4.10406 20.2935 3.86233 20.3901 3.63759C20.4866 3.41285 20.627 3.20958 20.8029 3.03965L22.645 1.19755C22.9904 0.852205 23.4589 0.658203 23.9474 0.658203C24.4358 0.658203 24.9043 0.852205 25.2497 1.19755Z" fill="#94A3B2"/>
</svg>
