<svg width="30" height="30" viewBox="0 0 30 30" fill="none" xmlns="http://www.w3.org/2000/svg">
<path fill-rule="evenodd" clip-rule="evenodd" d="M2.96345 2.96345C3.37663 2.55026 4.0588 2.28007 5.12646 2.30987C6.19748 2.33975 7.54417 2.67367 9.0926 3.33728C10.3291 3.86722 11.6584 4.59191 13.0306 5.49305C11.6889 6.54927 10.3479 7.73847 9.04322 9.04314C7.73851 10.3479 6.54929 11.6889 5.49305 13.0306C4.59191 11.6584 3.86721 10.3292 3.33728 9.09264C2.67367 7.5442 2.33975 6.19751 2.30987 5.12648C2.28007 4.0588 2.55026 3.37664 2.96345 2.96345ZM10.0017 1.21618C11.5888 1.89641 13.2805 2.84938 15 4.03763C16.7196 2.84939 18.4112 1.89642 19.9983 1.21619C21.7061 0.48431 23.3493 0.0438181 24.8092 0.00308236C26.2723 -0.0377469 27.6619 0.325227 28.6683 1.33168C29.6748 2.33813 30.0378 3.72769 29.9969 5.19087C29.9562 6.65069 29.5157 8.29398 28.7838 10.0017C28.1036 11.5889 27.1506 13.2805 25.9624 15.0001C27.1506 16.7196 28.1035 18.4112 28.7837 19.9983C29.5156 21.706 29.9561 23.3493 29.9968 24.8091C30.0376 26.2723 29.6747 27.6619 28.6682 28.6683C27.6618 29.6748 26.2722 30.0377 24.809 29.9969C23.3492 29.9562 21.7059 29.5157 19.9982 28.7838C18.4111 28.1036 16.7195 27.1507 15 25.9625C13.2805 27.1507 11.5889 28.1036 10.0018 28.7838C8.29407 29.5157 6.65079 29.9562 5.19097 29.9969C3.7278 30.0378 2.33824 29.6748 1.3318 28.6683C0.325347 27.6619 -0.037624 26.2723 0.00320503 24.8091C0.0439404 23.3493 0.484429 21.706 1.21631 19.9983C1.89651 18.4112 2.84944 16.7196 4.03764 15.0001C2.84938 13.2805 1.8964 11.5889 1.21617 10.0017C0.48429 8.29396 0.0438014 6.65068 0.00306592 5.19085C-0.037763 3.72767 0.325208 2.33812 1.33166 1.33166C2.33811 0.325211 3.72766 -0.0377633 5.19083 0.00306595C6.65065 0.0438016 8.29393 0.484293 10.0017 1.21618ZM10.675 10.6749C12.1012 9.24872 13.5608 7.97956 15 6.88727C16.4392 7.97956 17.8988 9.24871 19.325 10.6749C20.7512 12.1012 22.0204 13.5609 23.1127 15.0001C22.0205 16.4393 20.7513 17.8989 19.3251 19.3251C17.8989 20.7513 16.4392 22.0205 15 23.1128C13.5608 22.0205 12.1011 20.7513 10.6749 19.3251C9.24869 17.8989 7.97954 16.4393 6.88726 15.0001C7.97957 13.5609 9.24877 12.1012 10.675 10.6749ZM20.9568 9.04313C22.2615 10.3478 23.4507 11.6889 24.507 13.0306C25.4081 11.6584 26.1328 10.3292 26.6627 9.09266C27.3263 7.54422 27.6602 6.19752 27.6901 5.1265C27.7199 4.05882 27.4497 3.37665 27.0366 2.96347C26.6234 2.55028 25.9412 2.28009 24.8735 2.30988C23.8025 2.33977 22.4558 2.67368 20.9074 3.3373C19.6709 3.86723 18.3417 4.59192 16.9694 5.49305C18.3111 6.54927 19.6521 7.73846 20.9568 9.04313ZM20.9569 20.9569C22.2616 19.6522 23.4507 18.3112 24.507 16.9696C25.408 18.3417 26.1327 19.6709 26.6626 20.9073C27.3262 22.4558 27.6601 23.8025 27.69 24.8735C27.7198 25.9412 27.4496 26.6233 27.0364 27.0365C26.6232 27.4497 25.9411 27.7199 24.8734 27.6901C23.8024 27.6602 22.4557 27.3263 20.9073 26.6627C19.6708 26.1328 18.3416 25.4081 16.9695 24.507C18.3112 23.4508 19.6522 22.2616 20.9569 20.9569ZM9.04308 20.9569C10.3478 22.2616 11.6888 23.4508 13.0306 24.507C11.6584 25.4081 10.3292 26.1328 9.09274 26.6627C7.54431 27.3263 6.19762 27.6602 5.1266 27.6901C4.05893 27.7199 3.37677 27.4497 2.96359 27.0366C2.5504 26.6234 2.28021 25.9412 2.31 24.8735C2.33989 23.8025 2.67381 22.4558 3.33742 20.9074C3.86733 19.6709 4.59198 18.3417 5.49306 16.9695C6.54926 18.3112 7.73843 19.6522 9.04308 20.9569ZM15.0001 18.0769C16.6994 18.0769 18.077 16.6994 18.077 15C18.077 13.3007 16.6994 11.9231 15.0001 11.9231C13.3008 11.9231 11.9232 13.3007 11.9232 15C11.9232 16.6994 13.3008 18.0769 15.0001 18.0769Z" fill="#94A3B2"/>
</svg>
