<svg width="28" height="28" viewBox="0 0 28 28" fill="none" xmlns="http://www.w3.org/2000/svg">
<path d="M13.9548 9.52781C11.4682 9.52781 9.43897 11.557 9.43897 14.0436C9.43897 16.5302 11.4682 18.5594 13.9548 18.5594C16.4414 18.5594 18.4706 16.5302 18.4706 14.0436C18.4706 11.557 16.4414 9.52781 13.9548 9.52781ZM27.4988 14.0436C27.4988 12.1736 27.5158 10.3205 27.4108 8.45391C27.3057 6.28578 26.8111 4.36156 25.2257 2.77611C23.6369 1.18728 21.716 0.69606 19.5479 0.591041C17.6779 0.486022 15.8248 0.502961 13.9582 0.502961C12.0882 0.502961 10.2351 0.486022 8.36846 0.591041C6.20033 0.69606 4.27611 1.19067 2.69066 2.77611C1.10183 4.36495 0.610611 6.28578 0.505592 8.45391C0.400573 10.3239 0.417512 12.177 0.417512 14.0436C0.417512 15.9103 0.400573 17.7667 0.505592 19.6333C0.610611 21.8015 1.10522 23.7257 2.69066 25.3111C4.2795 26.9 6.20033 27.3912 8.36846 27.4962C10.2385 27.6012 12.0915 27.5843 13.9582 27.5843C15.8282 27.5843 17.6813 27.6012 19.5479 27.4962C21.716 27.3912 23.6402 26.8966 25.2257 25.3111C26.8145 23.7223 27.3057 21.8015 27.4108 19.6333C27.5192 17.7667 27.4988 15.9136 27.4988 14.0436ZM13.9548 20.9918C10.1097 20.9918 7.0066 17.8887 7.0066 14.0436C7.0066 10.1986 10.1097 7.09544 13.9548 7.09544C17.7998 7.09544 20.903 10.1986 20.903 14.0436C20.903 17.8887 17.7998 20.9918 13.9548 20.9918ZM21.1875 8.43358C20.2898 8.43358 19.5648 7.70861 19.5648 6.81087C19.5648 5.91313 20.2898 5.18816 21.1875 5.18816C22.0853 5.18816 22.8103 5.91313 22.8103 6.81087C22.8105 7.02404 22.7687 7.23517 22.6873 7.43217C22.6058 7.62917 22.4863 7.80816 22.3356 7.9589C22.1848 8.10963 22.0058 8.22915 21.8088 8.31061C21.6118 8.39206 21.4007 8.43385 21.1875 8.43358Z" fill="#FAFAFA"/>
</svg>
