<svg width="372" height="219" viewBox="0 0 372 219" fill="none" xmlns="http://www.w3.org/2000/svg">
<path d="M331.467 236.117C321.398 253.557 296.374 260.911 262.869 257.689C229.559 254.486 188.69 240.864 148.224 217.502C107.759 194.139 75.5277 165.556 56.099 138.311C36.5564 110.905 30.4133 85.5566 40.4821 68.117C50.5508 50.6773 75.575 43.3231 109.08 46.5448C142.39 49.7479 183.259 63.3695 223.724 86.7321C264.19 110.095 296.421 138.678 315.85 165.923C335.392 193.329 341.535 218.677 331.467 236.117Z" stroke="#0D284C" stroke-width="4"/>
<path d="M40.5334 236.117C50.6022 253.557 75.6264 260.911 109.131 257.689C142.441 254.486 183.31 240.864 223.776 217.502C264.241 194.139 296.472 165.556 315.901 138.311C335.444 110.905 341.587 85.5566 331.518 68.117C321.449 50.6773 296.425 43.3231 262.92 46.5448C229.61 49.7479 188.741 63.3695 148.276 86.7321C107.81 110.095 75.5791 138.678 56.1504 165.923C36.6077 193.329 30.4646 218.677 40.5334 236.117Z" stroke="#0D284C" stroke-width="4"/>
<path fill-rule="evenodd" clip-rule="evenodd" d="M191.621 106.285C188.853 105.312 186.421 106.992 184.437 108.882C182.356 110.865 179.866 113.969 176.741 117.865L176.624 118.011L156.476 143.128L156.358 143.275C153.996 146.219 152.07 148.621 150.906 150.601C149.738 152.589 148.924 154.841 150.01 157.105C151.097 159.37 153.363 160.144 155.644 160.476C157.917 160.808 160.996 160.808 164.771 160.808H164.771H164.959H170.073C172.185 160.808 173.551 160.812 174.557 160.947C175.5 161.074 175.796 161.279 175.961 161.445C176.127 161.61 176.332 161.906 176.458 162.849C176.594 163.855 176.598 165.22 176.598 167.333V177.336V177.523C176.598 182.517 176.598 186.497 176.981 189.346C177.346 192.061 178.192 194.894 180.959 195.866C183.727 196.839 186.159 195.159 188.143 193.269C190.224 191.287 192.714 188.182 195.839 184.287L195.956 184.14L216.104 159.023L216.222 158.876L216.222 158.876C218.584 155.932 220.51 153.53 221.674 151.55C222.842 149.562 223.656 147.311 222.57 145.046C221.483 142.781 219.217 142.008 216.935 141.675C214.663 141.343 211.584 141.344 207.809 141.344H207.809H207.621H202.507C200.395 141.344 199.029 141.339 198.023 141.204C197.08 141.077 196.784 140.872 196.619 140.707C196.453 140.541 196.248 140.245 196.122 139.302C195.986 138.296 195.982 136.931 195.982 134.819V124.815V124.628C195.982 119.634 195.982 115.654 195.599 112.805C195.234 110.09 194.388 107.258 191.621 106.285Z" fill="#0D284C"/>
</svg>
