<svg width="434" height="155" viewBox="0 0 434 155" fill="none" xmlns="http://www.w3.org/2000/svg">
<rect x="0.683594" y="37.875" width="424.011" height="117.395" rx="25" transform="rotate(-5 0.683594 37.875)" fill="#0D284C"/>
<path d="M45.8769 108.211C43.1832 109.951 39.4607 108.433 39.203 105.488L37.1085 81.5482C36.8509 78.6033 40.2532 76.4616 43.2082 77.7075L66.903 87.695C69.8185 88.923 70.1351 92.5425 67.4772 94.2585L45.8769 108.211Z" fill="#FAFAFA"/>
<path d="M89.3545 87.3306L89.6512 90.7214" stroke="#FAFAFA" stroke-width="4.05997" stroke-linecap="round"/>
<path d="M100.996 73.7915L103.466 102.033" stroke="#FAFAFA" stroke-width="4.05997" stroke-linecap="round"/>
<path d="M113.579 71.0156L116.34 102.582" stroke="#FAFAFA" stroke-width="4.05997" stroke-linecap="round"/>
<path d="M126.25 69.251L129.126 102.12" stroke="#FAFAFA" stroke-width="4.05997" stroke-linecap="round"/>
<path d="M138.817 66.2954L142.015 102.849" stroke="#FAFAFA" stroke-width="4.05997" stroke-linecap="round"/>
<path d="M151.25 61.8008L155.039 105.116" stroke="#FAFAFA" stroke-width="4.05997" stroke-linecap="round"/>
<path d="M164.038 61.3657L167.708 103.323" stroke="#FAFAFA" stroke-width="4.05997" stroke-linecap="round"/>
<path d="M177.002 62.9546L180.2 99.5078" stroke="#FAFAFA" stroke-width="4.05997" stroke-linecap="round"/>
<path d="M189.658 61.0088L193.001 99.2253" stroke="#FAFAFA" stroke-width="4.05997" stroke-linecap="round"/>
<path d="M201.814 53.3574L206.301 104.65" stroke="#FAFAFA" stroke-width="4.05997" stroke-linecap="round"/>
<path d="M214.8 55.1865L218.772 100.594" stroke="#FAFAFA" stroke-width="4.05997" stroke-linecap="round"/>
<path d="M226.877 46.6304L232.152 106.923" stroke="#FAFAFA" stroke-width="4.05997" stroke-linecap="round"/>
<path d="M239.427 43.4785L245.058 107.848" stroke="#FAFAFA" stroke-width="4.05997" stroke-linecap="round"/>
<path d="M252.155 42.3647L257.787 106.734" stroke="#FAFAFA" stroke-width="4.05997" stroke-linecap="round"/>
<path d="M265.286 45.8501L270.113 101.021" stroke="#FAFAFA" stroke-width="4.05997" stroke-linecap="round"/>
<path d="M278.014 44.7368L282.841 99.9075" stroke="#FAFAFA" stroke-width="4.05997" stroke-linecap="round"/>
<path d="M290.743 43.623L295.569 98.7938" stroke="#FAFAFA" stroke-width="4.05997" stroke-linecap="round"/>
<path d="M303.471 42.5098L308.298 97.6805" stroke="#FAFAFA" stroke-width="4.05997" stroke-linecap="round"/>
<path d="M327.721 64.3075C327.577 62.6644 328.015 61.2636 329.035 60.1051C330.063 58.9459 331.437 58.291 333.157 58.1405C334.818 57.9953 336.252 58.3742 337.461 59.2774C338.677 60.1713 339.35 61.3542 339.479 62.8261C339.563 63.7931 339.372 64.767 338.906 65.7477C338.44 66.7284 337.521 68.098 336.149 69.8565L332.113 75.0343L332.131 75.2396L340.809 74.4805L340.991 76.56L329.001 77.6089L328.862 76.0172L334.655 68.4608C335.732 67.0645 336.437 66.0111 336.772 65.3006C337.106 64.5901 337.241 63.8626 337.176 63.1181C337.095 62.1939 336.676 61.4501 335.92 60.8868C335.171 60.3142 334.288 60.0724 333.27 60.1615C332.183 60.2566 331.335 60.6671 330.726 61.393C330.117 62.1189 329.86 63.0252 329.955 64.1121L329.956 64.1249L327.722 64.3203L327.721 64.3075ZM350.216 76.1926C348.462 76.3461 346.968 75.981 345.735 75.0971C344.502 74.2048 343.764 72.9629 343.521 71.3716L345.793 71.1728C345.983 72.1651 346.469 72.9375 347.251 73.49C348.04 74.0332 348.978 74.2573 350.064 74.1622C351.305 74.0536 352.268 73.577 352.953 72.7324C353.647 71.887 353.938 70.831 353.827 69.5645C353.716 68.298 353.246 67.3043 352.415 66.5837C351.593 65.8537 350.574 65.5419 349.358 65.6482C348.52 65.7215 347.783 65.9714 347.147 66.3978C346.511 66.8156 346.034 67.3705 345.715 68.0624L343.546 68.2522L343.641 57.6631L353.975 56.759L354.155 58.8257L345.632 59.5714L345.626 65.5608L345.831 65.5429C346.637 64.4117 347.896 63.7712 349.608 63.6214C351.371 63.4672 352.859 63.9191 354.073 64.977C355.286 66.035 355.973 67.4754 356.132 69.2982C356.297 71.1809 355.832 72.7608 354.736 74.0381C353.64 75.3067 352.133 76.0249 350.216 76.1926ZM361.17 72.6603C360.716 72.7 360.308 72.5718 359.946 72.2758C359.592 71.9705 359.395 71.5911 359.355 71.1375C359.315 70.6754 359.443 70.2675 359.74 69.9139C360.045 69.5595 360.424 69.3624 360.878 69.3228C361.34 69.2823 361.748 69.4105 362.102 69.7072C362.455 70.004 362.652 70.3834 362.693 70.8455C362.732 71.2991 362.604 71.707 362.308 72.0692C362.011 72.4228 361.632 72.6198 361.17 72.6603ZM360.306 62.7889C359.853 62.8286 359.445 62.7005 359.083 62.4045C358.728 62.0992 358.531 61.7197 358.491 61.2662C358.451 60.8041 358.579 60.3962 358.876 60.0425C359.181 59.6881 359.561 59.4911 360.014 59.4514C360.476 59.411 360.884 59.5391 361.238 59.8359C361.592 60.1326 361.789 60.5121 361.829 60.9742C361.869 61.4277 361.741 61.8356 361.445 62.1978C361.148 62.5515 360.768 62.7485 360.306 62.7889ZM372.763 74.22C370.675 74.4027 368.983 73.697 367.688 72.1029C366.393 70.5088 365.611 68.1714 365.342 65.0906C365.074 62.0355 365.444 59.6059 366.45 57.8018C367.457 55.9978 368.995 55.0051 371.066 54.8239C373.129 54.6435 374.808 55.3589 376.104 56.9701C377.409 58.5806 378.196 60.9177 378.464 63.9813C378.733 67.0535 378.368 69.4828 377.368 71.269C376.378 73.0544 374.843 74.0381 372.763 74.22ZM369.255 70.4913C370.107 71.7534 371.217 72.3245 372.587 72.2047C373.956 72.0849 374.942 71.3346 375.546 69.9538C376.157 68.5637 376.354 66.6278 376.137 64.1461C375.922 61.69 375.389 59.831 374.537 58.5689C373.693 57.3061 372.596 56.7338 371.244 56.8521C369.891 56.9704 368.902 57.7296 368.274 59.1298C367.654 60.5206 367.451 62.4398 367.665 64.8873C367.881 67.3605 368.411 69.2285 369.255 70.4913ZM385.273 64.0841L385.1 62.1072L387.347 61.9107C388.399 61.8186 389.232 61.4353 389.846 60.7607C390.468 60.0854 390.737 59.2686 390.653 58.3101C390.571 57.3687 390.18 56.6398 389.479 56.1234C388.778 55.5983 387.892 55.3826 386.823 55.4762C385.753 55.5698 384.913 55.9278 384.304 56.5503C383.693 57.1642 383.385 57.9716 383.377 58.9725L381.131 59.1691C381.11 57.5497 381.598 56.2308 382.596 55.2122C383.593 54.1936 384.973 53.6072 386.736 53.453C387.797 53.3602 388.792 53.493 389.72 53.8516C390.656 54.2009 391.413 54.7253 391.992 55.4249C392.571 56.1245 392.898 56.915 392.976 57.7965C393.072 58.9004 392.867 59.8583 392.36 60.6701C391.854 61.4819 391.102 62.0564 390.105 62.3937L390.123 62.5991C391.395 62.6516 392.427 63.0572 393.218 63.8159C394.008 64.566 394.458 65.5743 394.569 66.8408C394.702 68.3641 394.186 69.7071 393.02 70.8697C391.853 72.0239 390.354 72.681 388.523 72.8412C386.64 73.006 385.062 72.6611 383.789 71.8067C382.515 70.9438 381.765 69.7244 381.541 68.1487L383.775 67.9533C383.964 68.9285 384.469 69.6776 385.291 70.2007C386.113 70.7238 387.123 70.933 388.321 70.8281C389.536 70.7218 390.505 70.3094 391.226 69.5909C391.957 68.8716 392.278 68.0028 392.188 66.9844C392.095 65.9147 391.64 65.1008 390.824 64.5427C390.007 63.9847 388.94 63.7633 387.622 63.8786L385.273 64.0841Z" fill="#FAFAFA"/>
</svg>
