<svg width="463" height="238" viewBox="0 0 463 238" fill="none" xmlns="http://www.w3.org/2000/svg">
<path d="M378.89 44.371C392.435 55.1487 415.699 78.7616 440.435 106.881C448.868 116.45 456.289 124.658 463 131.768L463 238C453.536 231.561 441.063 225.543 420.116 216.814C391.356 204.958 376.043 195.454 361.908 180.855C351.209 169.784 345.614 161.064 332.559 135.295C319.602 109.527 311.651 96.1038 302.032 83.1706C288.29 64.6526 273.762 52.1113 256.683 43.5872C233.91 32.3196 211.923 29.7722 170.795 33.7893C131.63 37.5125 106.403 40.8438 83.925 45.0569C46.5268 52.1113 29.2511 52.1113 7.85263 45.0569C3.53368 43.5872 -8.56658e-06 42.0195 -8.58799e-06 41.5296C-8.60941e-06 41.0397 9.91394 40.6478 23.4597 40.6478C57.9132 40.6478 57.3242 40.7458 132.513 22.0318C162.451 14.5854 192.291 7.33503 198.77 5.96332C269.443 -8.7335 327.749 3.6118 378.89 44.371Z" fill="#94A3B2"/>
</svg>
