<svg width="300" height="148" viewBox="0 0 300 148" fill="none" xmlns="http://www.w3.org/2000/svg">
<path d="M99.9523 28.4486C97.4078 11.2026 91.671 2.45023 81.3282 0C79.5965 10.7433 85.3215 19.5077 99.9523 28.4486Z" fill="#0D284C"/>
<path d="M82.6119 112.877C64.8713 98.1518 51.9727 95.7016 40.3232 104.784C47.9803 117.589 60.8792 120.062 82.6119 112.877Z" fill="#0D284C"/>
<path d="M16.6808 55.7297C25.9162 61.9378 39.8519 61.0659 51.0442 60.3711C54.3307 60.1709 57.2876 59.9824 59.891 59.9824C60.8452 59.9824 61.7522 60.0059 62.6121 60.0648C69.1619 60.5007 75.2873 63.905 79.54 66.9562C77.2075 59.0519 72.1187 46.6358 62.1646 41.1699C51.7395 35.445 40.466 35.4094 31.4199 35.3859C26.6962 35.3741 22.6085 35.3623 19.3102 34.5731C14.1507 33.3361 10.063 30.3559 7.30638 27.729C7.1179 35.7983 8.09311 49.9692 16.6808 55.7297Z" fill="#0D284C"/>
<path d="M218.661 0C208.318 2.45023 202.581 11.2026 200.037 28.4486C214.667 19.5077 220.392 10.7433 218.661 0Z" fill="#0D284C"/>
<path d="M217.376 112.876C239.11 120.062 252.008 117.588 259.665 104.783C248.014 95.6891 235.115 98.1511 217.376 112.876Z" fill="#0D284C"/>
<path d="M248.956 60.3736C260.147 61.0686 274.071 61.9285 283.32 55.7321C291.896 49.9716 292.885 35.8004 292.697 27.7432C289.928 30.3819 285.852 33.3622 280.693 34.5872C277.406 35.3765 273.318 35.3882 268.583 35.4C259.524 35.4236 248.251 35.4471 237.838 41.1841C227.861 46.6617 222.772 59.0778 220.451 66.9704C224.704 63.9195 230.829 60.5151 237.391 60.0672C240.583 59.8552 244.456 60.1026 248.956 60.3736Z" fill="#0D284C"/>
<path fill-rule="evenodd" clip-rule="evenodd" d="M150.117 95.3216C170.916 95.3216 187.778 78.4603 187.778 57.6608C187.778 36.8613 170.916 20 150.117 20C129.317 20 112.456 36.8613 112.456 57.6608C112.456 78.4603 129.317 95.3216 150.117 95.3216ZM150.117 189.474C186.516 189.474 216.023 172.613 216.023 151.813C216.023 131.014 186.516 114.152 150.117 114.152C113.718 114.152 84.2104 131.014 84.2104 151.813C84.2104 172.613 113.718 189.474 150.117 189.474Z" fill="#0D284C"/>
</svg>
