<svg width="600" height="310" viewBox="0 0 600 310" fill="none" xmlns="http://www.w3.org/2000/svg">
<rect width="600" height="310" rx="60" fill="#0D284C"/>
<mask id="mask0_2012_15" style="mask-type:alpha" maskUnits="userSpaceOnUse" x="0" y="0" width="600" height="310">
<rect width="600" height="310" rx="60" fill="#FAFAFA"/>
</mask>
<g mask="url(#mask0_2012_15)">
<path d="M340.837 -501.856C341.1 -495.25 341.515 -484.594 341.911 -478.024C342.563 -463.267 341.361 -444.712 339.052 -434.043C334.046 -410.664 322.77 -386.035 305.621 -361.627C257.697 -292.937 194.713 -253.664 140.291 -258.248C131.465 -259.042 114.782 -262.899 110.961 -265.105L109.092 -266.184L80.5076 -216.674L90.7378 -211.447C113.334 -199.986 139.248 -193.29 166.304 -191.71C194.722 -190.136 213.268 -192.45 249.775 -201.945C280.522 -209.896 292.173 -212.228 307.831 -213.265C347.214 -215.778 387.148 -205.517 421.231 -184.141C464.374 -157.081 484.823 -119.345 485.374 -65.5821C485.569 -51.9952 483.985 -24.1489 482.837 -20.3957C481.516 -15.9499 478.359 7.3647 477.303 20.569C472.692 78.3714 489.284 129.846 523.422 163.483C530.59 170.679 533.536 172.833 546.503 180.772C577.47 199.896 596.658 203.728 647.354 200.84C695.143 198.085 718.128 201.617 741.942 215.48C762.614 227.528 779.524 245.897 793.23 270.794C799.757 282.828 803.129 290.324 814.182 318.445C818.98 330.727 825.359 345.959 828.274 352.285C844.31 386.68 869.479 413.101 906.881 434.808C928.572 447.445 948.945 455.697 973.451 461.693C978.906 463.031 991.117 466.004 1000.64 468.333C1021.3 473.351 1041.76 480.071 1056.18 486.472L1066.79 491.239L1085.33 459.138L1079.21 456.398C1064.06 449.69 1050.88 446.043 1015.89 438.979C984.855 432.722 974.761 429.612 962.193 422.356C951.274 416.165 947.469 412.949 939.556 403.512C927.457 389.167 919.985 370.925 910.931 333.654C902.511 299.013 900.145 292.325 892.252 281.087C882.789 267.471 875.417 262.196 809.443 221.728C767.704 196.158 756.843 190.454 739.962 184.784C718.648 177.573 700.247 174.536 661.045 171.831C626.27 169.305 612.403 166.847 590.41 159.244C581.375 156.066 576.557 153.624 560.882 144.688C540.84 133.117 535.883 129.348 524.093 116.427C494.281 83.9288 481.096 32.0435 490.696 -15.1792C493.582 -29.5917 497.018 -39.2703 508.435 -65.5159C515.317 -81.358 519.907 -93.4276 521.922 -100.643C535.295 -148.518 521.426 -183.135 473.216 -222.405C467.981 -226.674 452.222 -238.603 438.207 -248.845C397.691 -278.691 384.483 -289.94 376.568 -301.53C367.082 -315.499 367.371 -328.354 377.485 -338.027C390.726 -350.764 415.057 -349.172 431.57 -334.43C434.61 -331.655 440.192 -325.829 443.882 -321.433C464.547 -296.821 469.475 -291.824 495.645 -268.902C529.036 -239.659 544.254 -223.853 555.817 -206.42C574.217 -178.473 582.882 -144.256 578.44 -116.362C575.635 -98.1663 570.475 -83.9342 557.223 -57.8428C542.424 -28.6809 538.036 -15.5888 536.884 2.88172C535.629 22.3126 540.537 40.0925 551.665 56.708C562.382 72.8596 576.135 84.5365 597.042 95.5884C622.04 108.775 640.169 112.675 678.336 112.857C732.788 113.27 757.602 118.537 789.474 136.486C796.487 140.422 802.288 143.318 802.435 143.063C803.072 141.959 799.873 133.771 797.336 129.929C790.221 118.914 779.522 109.792 759.278 97.1987C742.297 86.6021 736.251 84.1304 703.383 73.9861C667.928 63.0275 650.308 56.4783 638.589 49.7121C617.698 37.6507 602.584 20.093 595.717 -0.176809C587.986 -22.8709 587.327 -47.0296 593.268 -94.7794C600.909 -155.475 597.952 -193.303 582.75 -232.086C567.921 -269.748 546.964 -299.738 504.506 -344.066C484.082 -365.37 470.49 -380.464 463.56 -389.446C438.334 -422.241 426.012 -454.832 425.981 -488.706L425.948 -497.67L343.573 -545.229L342.758 -542.642C341.388 -538.112 340.273 -514.411 340.837 -501.856Z" fill="#94A3B2"/>
<path d="M-77.6643 -351.775C-74.5888 -345.923 -69.6197 -336.487 -66.6781 -330.599C-59.8644 -317.493 -49.5461 -302.025 -42.2113 -293.94C-26.1865 -276.196 -4.1075 -260.505 22.9479 -247.941C98.7964 -212.416 172.98 -209.896 217.817 -241.077C225.065 -246.178 237.584 -257.859 239.79 -261.681L240.869 -263.549L290.379 -234.965L284.133 -225.323C270.294 -204.099 251.2 -185.344 228.559 -170.448C204.735 -154.876 187.517 -147.606 151.153 -137.575C120.55 -129.088 109.294 -125.282 95.2151 -118.351C59.8523 -100.836 30.3988 -71.9825 11.5703 -36.4287C-12.2629 8.57782 -11.1038 51.4819 15.3003 98.3176C21.9249 110.182 37.2195 133.505 40.0902 136.182C43.4573 139.371 57.8484 157.984 65.3652 168.891C98.2603 216.644 109.628 269.518 96.8826 315.718C94.2725 325.534 92.7981 328.872 85.5381 342.231C68.2821 374.277 53.5803 387.189 8.23214 410.036C-34.5315 431.545 -52.6705 446.096 -66.3631 470.008C-78.2415 490.778 -83.7017 515.141 -83.1228 543.556C-82.758 557.241 -81.9308 565.419 -77.4419 595.299C-75.4566 608.334 -73.3645 624.715 -72.7264 631.651C-69.4162 669.456 -78.003 704.922 -99.5404 742.422C-112.007 764.211 -125.525 781.544 -143.749 798.989C-147.805 802.876 -156.893 811.556 -163.978 818.336C-179.356 833.009 -193.719 849.061 -203.008 861.815L-209.812 871.248L-241.913 852.714L-237.985 847.283C-228.219 833.898 -218.627 824.15 -191.861 800.539C-168.111 779.603 -160.924 771.862 -153.668 759.294C-147.307 748.473 -145.62 743.785 -143.486 731.656C-140.181 713.183 -142.83 693.65 -153.625 656.845C-163.653 622.634 -164.948 615.659 -163.732 601.981C-162.345 585.458 -158.598 577.204 -121.697 509.17C-98.3346 466.156 -91.7812 455.786 -79.9966 442.435C-65.1433 425.534 -50.7261 413.702 -18.1288 391.759C10.7238 372.184 21.5041 363.122 36.7497 345.541C42.9852 338.271 45.9366 333.747 55.0431 318.171C66.6142 298.129 69.0237 292.387 72.773 275.302C82.3424 232.251 67.8181 180.725 35.8928 144.629C26.1873 133.59 18.3718 126.927 -4.63783 109.905C-18.5187 99.6266 -28.529 91.4693 -33.8817 86.2275C-69.401 51.4534 -74.6979 14.5394 -52.5822 -43.5743C-50.1822 -49.8884 -42.4993 -68.0987 -35.4835 -83.9766C-15.3187 -130.082 -9.50501 -146.428 -8.44533 -160.422C-7.21485 -177.263 -13.892 -188.251 -27.4876 -191.571C-45.3233 -195.981 -65.5986 -182.437 -72.5278 -161.413C-73.7738 -157.49 -75.6939 -149.654 -76.6921 -144.002C-82.2821 -112.355 -84.0516 -105.563 -95.2544 -72.6271C-109.551 -30.6068 -114.827 -9.30849 -116.124 11.5696C-118.085 44.9727 -108.482 78.9381 -90.6874 100.874C-79.16 115.229 -67.5755 124.975 -43.053 140.945C-15.6563 158.8 -5.30981 167.944 4.92359 183.364C15.7252 199.564 20.365 217.416 19.0355 237.37C17.8303 256.716 11.7583 273.705 -0.822242 293.73C-15.8771 317.648 -29.628 330.09 -62.5903 349.332C-109.541 376.915 -128.396 393.884 -147.024 425.364C-151.129 432.278 -154.705 437.687 -154.96 437.54C-156.064 436.903 -157.387 428.212 -157.111 423.616C-156.457 410.519 -151.752 397.27 -140.517 376.242C-131.109 358.574 -127.109 353.411 -103.717 328.192C-78.491 300.974 -66.5068 286.492 -59.7406 274.773C-47.6792 253.882 -43.3694 231.12 -47.5573 210.132C-52.2084 186.612 -63.7172 165.361 -92.7376 126.979C-129.703 78.2354 -146.056 43.9967 -152.282 2.80937C-158.271 -37.2214 -155.116 -73.6721 -140.51 -133.291C-133.474 -161.952 -129.25 -181.82 -127.741 -193.064C-122.292 -234.078 -127.916 -268.463 -144.826 -297.815L-149.279 -305.595L-101.72 -387.97L-99.721 -386.136C-96.269 -382.898 -83.4529 -362.93 -77.6643 -351.775Z" fill="#94A3B2"/>
</g>
</svg>
