<svg width="600" height="285" viewBox="0 0 600 285" fill="none" xmlns="http://www.w3.org/2000/svg">
<path d="M219.256 45.6125C215.177 17.9615 205.979 3.92853 189.396 0C186.619 17.2251 195.798 31.2774 219.256 45.6125Z" fill="#0D284C"/>
<path d="M61.4547 180.978C33.0106 157.369 12.3299 153.44 -6.34814 168.002C5.92869 188.533 26.6099 192.499 61.4547 180.978Z" fill="#0D284C"/>
<path d="M133.09 242.417C135.527 266.347 152.468 279.058 188.733 284.025C173.056 250.198 156.058 237.544 133.09 242.417Z" fill="#0D284C"/>
<path d="M71.0627 89.3515C85.8702 99.3051 108.214 97.9073 126.159 96.7933C131.428 96.4722 136.169 96.17 140.343 96.17C141.873 96.17 143.327 96.2077 144.706 96.3022C155.207 97.001 165.028 102.459 171.847 107.351C168.107 94.6781 159.948 74.7709 143.989 66.0073C127.274 56.8283 109.198 56.7712 94.6945 56.7335C87.1208 56.7146 80.5668 56.6958 75.2786 55.4303C67.0062 53.4472 60.4522 48.6689 56.0325 44.457C55.7303 57.3948 57.2938 80.1155 71.0627 89.3515Z" fill="#0D284C"/>
<path d="M409.586 0C393.003 3.92853 383.805 17.9615 379.725 45.6125C403.183 31.2774 412.362 17.2251 409.586 0Z" fill="#0D284C"/>
<path d="M537.526 180.978C572.373 192.499 593.053 188.533 605.329 168.003C586.65 153.422 565.968 157.369 537.526 180.978Z" fill="#0D284C"/>
<path d="M465.89 242.419C462.735 241.758 459.695 241.418 456.767 241.418C438.277 241.418 423.771 254.847 410.248 284.027C446.511 279.06 463.453 266.349 465.89 242.419Z" fill="#0D284C"/>
<path d="M473.55 96.7979C491.492 97.9122 513.817 99.2909 528.646 89.3561C542.396 80.1201 543.982 57.3989 543.68 44.4805C539.242 48.7112 532.707 53.4897 524.434 55.4538C519.165 56.7192 512.611 56.7381 505.018 56.757C490.494 56.7947 472.419 56.8325 455.724 66.0307C439.727 74.8132 431.568 94.7203 427.847 107.375C434.665 102.483 444.486 97.0248 455.007 96.3068C460.125 95.9668 466.335 96.3635 473.55 96.7979Z" fill="#0D284C"/>
</svg>
