<svg width="613" height="120" viewBox="0 0 613 120" fill="none" xmlns="http://www.w3.org/2000/svg">
<path d="M817.514 383.717C814.949 379.656 810.817 373.101 808.181 369.112C802.41 360.064 796.426 347.953 794.003 340.401C788.66 323.872 786.808 304.281 788.731 282.694C793.932 222.066 819.295 174.476 855.201 157.591C861.043 154.884 872.941 151.251 876.147 151.251L877.714 151.251L877.714 109.716L869.378 110.143C850.998 111.141 832.261 116.341 814.664 125.176C796.212 134.508 785.383 142.701 765.862 161.937C749.405 178.109 742.922 183.809 733.447 190.149C709.58 206.036 680.727 214.087 651.517 213.018C614.542 211.665 587.969 195.35 568.092 161.723C563.033 153.245 553.914 135.15 553.273 132.371C552.49 129.094 546.006 113.278 541.874 104.586C523.779 66.5426 494.64 40.1827 460.942 31.4198C453.818 29.4963 451.182 29.2113 440.139 28.9263C413.708 28.1426 400.243 32.7022 369.395 52.9352C340.328 72.0283 324.583 78.1552 304.564 78.084C287.181 78.0128 269.868 72.5983 252.2 61.9118C243.722 56.7111 238.878 53.2202 221.708 39.5415C214.228 33.5571 204.681 26.2903 200.549 23.3694C177.965 7.5534 152.531 0.0728786 121.113 0.00163425C102.875 -0.0696096 87.0589 2.13892 69.4619 7.26841C65.5435 8.4083 56.7806 10.9731 49.9413 12.9679C35.1228 17.3137 19.8055 20.5196 8.40662 21.7307L-6.20224e-05 22.5857L-6.31996e-05 49.5155L4.84448 49.0168C16.8133 47.7345 26.4312 45.241 51.0099 36.9768C72.8103 29.6387 80.2908 27.9289 90.8348 27.9289C99.9539 27.8576 103.516 28.4988 111.923 31.5623C124.746 36.1931 136.074 44.956 155.31 65.1178C173.192 83.8547 177.11 87.2031 186.158 91.4064C197.058 96.5359 203.612 97.1771 259.823 98.6732C295.374 99.5994 304.279 99.2432 316.96 96.6784C332.99 93.4725 345.671 88.6992 371.319 76.1604C394.116 65.1178 403.734 61.6269 420.334 58.4209C427.173 57.1385 431.091 56.9248 444.2 56.8536C461.013 56.8536 465.502 57.4235 477.613 61.2706C508.176 70.8884 535.32 98.7445 546.434 131.944C549.854 142.06 551.207 149.398 553.558 170.059C554.983 182.526 556.479 191.788 557.833 197.06C566.809 232.04 588.111 248.782 632.709 255.978C637.554 256.761 651.802 258.543 664.341 259.896C700.675 263.957 713.071 266.237 722.262 270.654C733.304 275.997 737.793 284.19 734.943 293.95C731.238 306.774 715.351 314.611 699.606 311.334C696.685 310.692 691.057 309.054 687.139 307.629C665.196 299.65 660.28 298.296 635.488 293.38C603.856 287.111 588.538 282.694 574.931 275.926C553.202 265.026 535.32 246.645 527.982 227.481C523.137 215.013 521.214 204.184 520.074 182.954C518.792 159.23 516.797 149.398 510.812 137.358C504.543 124.677 494.996 115.273 481.959 108.861C469.349 102.592 456.454 100.241 439.284 100.882C418.766 101.665 405.943 105.798 381.863 119.547C347.452 139.068 329.926 144.767 303.353 145.052C297.511 145.124 292.809 145.409 292.809 145.622C292.809 146.549 297.796 150.538 300.788 152.034C309.266 156.38 319.311 158.232 336.623 158.802C351.157 159.301 355.859 158.66 380.224 153.103C406.513 147.118 419.978 144.839 429.809 144.839C447.335 144.839 463.222 150.396 474.906 160.655C488.015 172.125 497.205 187.086 510.812 219.288C528.053 260.252 543.655 282.979 567.308 301.858C590.32 320.168 614.4 331.424 657.217 343.892C677.806 349.876 691.841 354.436 699.464 357.57C727.249 369.04 746.84 385.07 759.165 406.372L762.443 412L831.548 412L831.121 410.076C830.337 406.728 822.429 391.411 817.514 383.717Z" fill="#0D284C"/>
</svg>
