<svg width="481" height="224" viewBox="0 0 481 224" fill="none" xmlns="http://www.w3.org/2000/svg">
<path d="M177.41 35.8685C174.202 14.1244 166.969 3.08929 153.928 0C151.745 13.5454 158.963 24.5957 177.41 35.8685Z" fill="#0D284C"/>
<path d="M53.3183 142.316C30.9507 123.751 14.6879 120.662 0 132.113C9.65418 148.257 25.9174 151.376 53.3183 142.316Z" fill="#0D284C"/>
<path d="M109.65 190.631C111.566 209.449 124.889 219.445 153.406 223.351C141.079 196.751 127.712 186.799 109.65 190.631Z" fill="#0D284C"/>
<path d="M60.8737 70.2648C72.518 78.092 90.0883 76.9928 104.2 76.1168C108.344 75.8643 112.072 75.6266 115.354 75.6266C116.557 75.6266 117.701 75.6563 118.785 75.7306C127.043 76.2801 134.766 80.5723 140.128 84.4194C137.187 74.4534 130.771 58.799 118.221 51.9075C105.076 44.6894 90.8626 44.6445 79.4572 44.6149C73.5014 44.6 68.3475 44.5851 64.189 43.59C57.6838 42.0305 52.5299 38.273 49.0543 34.9609C48.8167 45.1349 50.0463 63.0018 60.8737 70.2648Z" fill="#0D284C"/>
<path d="M327.079 0C314.039 3.08929 306.806 14.1244 303.598 35.8685C322.044 24.5957 329.263 13.5454 327.079 0Z" fill="#0D284C"/>
<path d="M427.688 142.315C455.091 151.375 471.353 148.256 481.007 132.111C466.318 120.646 450.055 123.75 427.688 142.315Z" fill="#0D284C"/>
<path d="M371.355 190.632C368.875 190.112 366.484 189.845 364.182 189.845C349.641 189.845 338.234 200.405 327.6 223.352C356.117 219.446 369.439 209.45 371.355 190.632Z" fill="#0D284C"/>
<path d="M377.379 76.1195C391.489 76.9958 409.044 78.08 420.705 70.2676C431.518 63.0046 432.765 45.1372 432.528 34.9785C429.037 38.3054 423.899 42.0632 417.393 43.6076C413.249 44.6027 408.096 44.6176 402.125 44.6324C390.703 44.6621 376.49 44.6918 363.361 51.9251C350.781 58.8314 344.365 74.4858 341.439 84.437C346.801 80.5903 354.524 76.298 362.797 75.7333C366.822 75.466 371.706 75.7779 377.379 76.1195Z" fill="#0D284C"/>
<path fill-rule="evenodd" clip-rule="evenodd" d="M233.871 62H247.129C254.451 62 260.386 67.5964 260.386 74.5C260.386 82.4001 268.839 87.4228 275.778 83.6457L276.483 83.2621C282.824 79.8103 290.932 81.8587 294.593 87.8374L301.222 98.6627C304.883 104.641 302.71 112.286 296.369 115.738C289.427 119.517 289.427 129.483 296.369 133.262C302.71 136.714 304.883 144.359 301.222 150.337L294.593 161.163C290.932 167.141 282.824 169.19 276.483 165.738L275.778 165.354C268.839 161.577 260.386 166.6 260.386 174.5C260.386 181.404 254.451 187 247.129 187H233.871C226.549 187 220.614 181.404 220.614 174.5C220.614 166.6 212.161 161.577 205.222 165.354L204.517 165.738C198.176 169.19 190.068 167.141 186.407 161.163L179.778 150.337C176.117 144.359 178.29 136.714 184.631 133.262C191.573 129.483 191.573 119.517 184.631 115.738C178.29 112.286 176.117 104.641 179.778 98.6626L186.407 87.8373C190.068 81.8586 198.176 79.8102 204.517 83.262L205.222 83.6456C212.161 87.4227 220.614 82.4001 220.614 74.5C220.614 67.5964 226.549 62 233.871 62ZM240.5 145.333C252.006 145.333 261.333 136.006 261.333 124.5C261.333 112.994 252.006 103.667 240.5 103.667C228.994 103.667 219.667 112.994 219.667 124.5C219.667 136.006 228.994 145.333 240.5 145.333Z" fill="#0D284C"/>
</svg>
