<svg width="613" height="120" viewBox="0 0 613 120" fill="none" xmlns="http://www.w3.org/2000/svg">
<path d="M-204.8 383.717C-202.235 379.656 -198.103 373.101 -195.467 369.112C-189.696 360.064 -183.712 347.953 -181.289 340.401C-175.946 323.872 -174.094 304.281 -176.017 282.694C-181.218 222.066 -206.581 174.476 -242.487 157.591C-248.329 154.884 -260.227 151.251 -263.433 151.251L-265 151.251L-265 109.716L-256.665 110.143C-238.284 111.141 -219.547 116.341 -201.95 125.176C-183.498 134.508 -172.669 142.701 -153.148 161.937C-136.691 178.109 -130.208 183.809 -120.733 190.149C-96.8665 206.036 -68.0131 214.087 -38.8034 213.018C-1.8283 211.665 24.7453 195.35 44.6221 161.723C49.6804 153.245 58.7995 135.15 59.4407 132.371C60.2243 129.094 66.7075 113.278 70.8395 104.586C88.9353 66.5426 118.074 40.1827 151.772 31.4198C158.896 29.4963 161.532 29.2113 172.575 28.9263C199.006 28.1426 212.471 32.7022 243.319 52.9352C272.386 72.0283 288.131 78.1552 308.15 78.084C325.533 78.0128 342.845 72.5983 360.514 61.9118C368.992 56.7111 373.836 53.2202 391.006 39.5415C398.486 33.5571 408.033 26.2903 412.165 23.3694C434.749 7.5534 460.183 0.0728786 491.601 0.00163425C509.839 -0.0696096 525.655 2.13892 543.252 7.26841C547.17 8.4083 555.933 10.9731 562.773 12.9679C577.591 17.3137 592.908 20.5196 604.307 21.7307L612.714 22.5857L612.714 49.5155L607.869 49.0168C595.901 47.7345 586.283 45.241 561.704 36.9768C539.904 29.6387 532.423 27.9289 521.879 27.9289C512.76 27.8576 509.198 28.4988 500.791 31.5623C487.967 36.1931 476.64 44.956 457.404 65.1178C439.522 83.8547 435.604 87.2031 426.556 91.4064C415.656 96.5359 409.101 97.1771 352.891 98.6732C317.34 99.5994 308.435 99.2432 295.754 96.6784C279.724 93.4725 267.043 88.6992 241.395 76.1604C218.598 65.1178 208.98 61.6269 192.38 58.4209C185.541 57.1385 181.622 56.9248 168.514 56.8536C151.7 56.8536 147.212 57.4235 135.101 61.2706C104.538 70.8884 77.3939 98.7445 66.28 131.944C62.8604 142.06 61.5067 149.398 59.1557 170.059C57.7308 182.526 56.2347 191.788 54.8811 197.06C45.9045 232.04 24.6029 248.782 -19.9953 255.978C-24.8398 256.761 -39.0884 258.543 -51.6272 259.896C-87.9611 263.957 -100.357 266.237 -109.548 270.654C-120.59 275.997 -125.079 284.19 -122.229 293.95C-118.524 306.774 -102.637 314.611 -86.8925 311.334C-83.9715 310.692 -78.3433 309.054 -74.4249 307.629C-52.4821 299.65 -47.5663 298.296 -22.7737 293.38C8.85814 287.111 24.1754 282.694 37.7828 275.926C59.5119 265.026 77.3939 246.645 84.7319 227.481C89.5765 215.013 91.5 204.184 92.6399 182.954C93.9223 159.23 95.9171 149.398 101.902 137.358C108.171 124.677 117.717 115.273 130.755 108.861C143.365 102.592 156.26 100.241 173.429 100.882C193.947 101.665 206.771 105.798 230.851 119.547C265.262 139.068 282.788 144.767 309.361 145.052C315.203 145.124 319.905 145.409 319.905 145.622C319.905 146.549 314.918 150.538 311.926 152.034C303.448 156.38 293.403 158.232 276.091 158.802C261.557 159.301 256.855 158.66 232.49 153.103C206.201 147.118 192.736 144.839 182.905 144.839C165.379 144.839 149.492 150.396 137.808 160.655C124.699 172.125 115.509 187.086 101.902 219.288C84.6607 260.252 69.0585 282.979 45.4058 301.858C22.3943 320.168 -1.68581 331.424 -44.5029 343.892C-65.0921 349.876 -79.127 354.436 -86.75 357.57C-114.535 369.04 -134.127 385.07 -146.452 406.372L-149.729 412L-218.835 412L-218.407 410.076C-217.623 406.728 -209.715 391.411 -204.8 383.717Z" fill="#0D284C"/>
</svg>
