<svg width="910" height="500" viewBox="0 0 910 500" fill="none" xmlns="http://www.w3.org/2000/svg">
<mask id="mask0_75_396" style="mask-type:alpha" maskUnits="userSpaceOnUse" x="0" y="0" width="910" height="500">
<rect width="910" height="500" rx="60" fill="#94A3B2"/>
</mask>
<g mask="url(#mask0_75_396)">
<path d="M897.551 -195.331C883.185 -186.868 868.429 -171.778 859.242 -156.243C847.605 -136.365 844.319 -115.15 850.055 -97.4991C852.839 -89.0355 855.678 -83.7458 865.979 -68.322C881.236 -45.2699 885.245 -36.5835 886.637 -22.6075C887.862 -11.2485 886.693 -1.50424 882.071 15.8127C878.062 31.0694 876.615 40.6466 876.893 50.5023C877.227 61.6386 879.51 70.7146 884.41 80.6259C890.591 93.0429 895.324 99.1122 911.36 115.148C927.396 131.185 930.459 133.69 960.916 155.35C984.637 172.166 996.553 181.521 1011.25 194.55C1017.54 200.174 1025.17 207.023 1028.18 209.696L1033.64 214.484L1055.8 192.323C1068.05 180.073 1077.9 169.772 1077.85 169.382C1077.4 167.6 1068.27 154.794 1062.7 148.112C1059.36 144.103 1050.45 134.08 1042.82 125.895C1027.34 109.079 1023.22 103.956 1018.44 95.2702C1012.64 84.6907 1010.19 74.4453 1010.47 61.5829C1010.7 51.8943 1011.86 45.4909 1015.04 36.1921C1019.27 23.7195 1020.72 20.824 1040.15 -13.5314C1048.17 -27.7859 1053.12 -38.0869 1056.35 -47.4414L1058.41 -53.3994L909.912 -201.902L907.796 -201.011C906.571 -200.454 902.005 -197.893 897.551 -195.331ZM987.978 -94.548C990.316 -74.1685 985.695 -54.8471 968.823 -13.8098C952.397 26.2252 946.718 44.9341 944.713 66.2044C943.488 79.1225 946.161 96.0497 951.061 105.961C952.174 108.3 952.954 110.304 952.731 110.527C952.508 110.75 949.891 109.024 946.885 106.796C939.145 100.95 927.675 88.477 923.498 81.2941C921.661 78.2316 919.1 72.3294 917.708 68.1533C912.808 53.5647 913.03 40.9807 918.654 13.4184C921.55 -0.724693 922.218 -6.29284 922.273 -15.3689C922.273 -36.6392 918.988 -46.0494 899.722 -80.0151C890.925 -95.4945 888.029 -103.847 888.141 -113.424C888.419 -148.114 927.118 -167.658 957.408 -148.392C972.554 -138.703 985.583 -115.874 987.978 -94.548Z" fill="#0D284C"/>
<path d="M840.867 -62.6985C823.494 -90.2052 818.706 -99.1142 816.256 -108.691C811.634 -126.565 816.868 -144.049 832.57 -163.426C835.466 -166.99 845.767 -178.405 855.567 -188.761C865.367 -199.118 873.329 -207.86 873.329 -208.194C873.329 -209.753 873.218 -209.642 849.776 -189.652C812.804 -158.248 798.995 -143.214 790.364 -124.895C779.951 -103.012 779.506 -80.4052 788.972 -55.5713C790.809 -50.8384 796.099 -38.7555 800.776 -28.7328C812.971 -2.61823 816.757 9.85441 817.202 26.0021C817.592 40.7576 814.808 54.0098 804.785 84.9687C795.765 112.698 792.981 124.614 792.09 139.425C790.754 160.361 796.656 174.839 813.416 191.599C823.828 202.011 832.738 208.248 852.226 218.827C869.543 228.126 879.844 234.529 890.758 242.659C899.778 249.452 917.206 267.437 924.668 277.794C929.122 283.919 939.869 299.454 942.374 303.296L943.321 304.799L980.628 267.493L966.317 253.182C950.504 237.369 939.702 227.792 926.282 217.713C917.596 211.143 912.529 207.858 887.584 192.156C861.024 175.507 848.885 163.702 840.422 146.33C832.459 129.904 831.902 108.188 838.918 83.688C840.087 79.5119 844.542 66.7052 848.774 55.2348C860.077 24.443 863.14 12.1374 863.14 -3.11936C863.14 -21.717 857.906 -35.6373 840.867 -62.6985Z" fill="#0D284C"/>
<path d="M810.799 -224.175C796.823 -201.401 794.93 -198.951 778.448 -182.469C767.423 -171.444 762.189 -166.656 756.621 -162.535C738.135 -148.949 722.989 -141.933 703.445 -137.757C686.852 -134.193 672.319 -133.915 645.425 -136.755C619.589 -139.427 601.325 -138.871 583.229 -134.917C575.768 -133.358 556.335 -126.955 555.889 -126.064C555.722 -125.674 561.346 -125.173 568.362 -124.839C594.644 -123.837 605.446 -122.277 617.25 -118.157C632.117 -112.867 642.53 -105.684 655.726 -91.5969C666.306 -80.3493 671.039 -73.055 675.938 -60.1369C684.402 -37.8643 685.794 -19.7679 682.676 29.0091C680.727 59.0214 680.504 85.6372 682.063 99.4462C687.91 151.62 713.969 191.71 762.412 223.449C766.866 226.344 787.914 239.151 809.129 251.902C862.416 283.919 862.026 283.64 881.57 303.185C889.254 310.869 895.101 316.27 895.379 315.991C895.658 315.713 894.544 312.818 892.929 309.532C884.8 293.385 875 283.585 849.776 266.379C834.631 256.022 818.427 243.606 794.095 223.505C768.481 202.457 757.456 188.537 750.941 169.215C746.097 154.682 744.984 139.314 747.712 120.995C749.605 108.188 752.723 96.0496 760.018 74.0554C767.256 52.0056 769.038 43.8761 769.261 31.5148C769.539 15.2001 766.254 1.11268 756.677 -21.9394C746.654 -46.3279 743.48 -57.4085 743.146 -69.9926C742.589 -91.597 751.721 -114.872 769.873 -138.147C776.833 -147.111 803.505 -175.565 825.555 -197.726C840.644 -212.816 865.478 -235.979 869.432 -238.707L871.603 -240.211L843.651 -268.163L841.257 -265.769C832.738 -257.249 822.659 -243.496 810.799 -224.175Z" fill="#0D284C"/>
</g>
</svg>
