<svg display="none" xmlns="http://www.w3.org/2000/svg">

    <symbol id="mail" viewBox="0 0 41 33">
        <path
            d="M36.5 0.5H4.5C2.3 0.5 0.52 2.3 0.52 4.5L0.5 28.5C0.5 30.7 2.3 32.5 4.5 32.5H36.5C38.7 32.5 40.5 30.7 40.5 28.5V4.5C40.5 2.3 38.7 0.5 36.5 0.5ZM36.5 8.5L20.5 18.5L4.5 8.5V4.5L20.5 14.5L36.5 4.5V8.5Z" />
    </symbol>

    <symbol id="whatsapp" viewBox="0 0 41 41">
        <path
            d="M21.6658 40.5H19.478C18.9105 40.4374 18.341 40.3865 17.7755 40.3044C14.9433 39.9241 12.229 38.9277 9.82359 37.3854C9.72584 37.3148 9.61201 37.2697 9.49241 37.2542C9.37282 37.2386 9.25124 37.2531 9.13867 37.2964C7.807 37.7376 6.46848 38.1602 5.13289 38.5876C4.17029 38.896 3.20769 39.202 2.20536 39.5208C2.04459 39.5719 1.88837 39.4196 1.94216 39.2597C2.66817 37.0949 3.38049 34.9243 4.13585 32.7635C4.27577 32.3605 4.22587 32.0788 3.99006 31.7354C2.04008 28.9347 0.865386 25.6684 0.585051 22.2675C0.210304 17.9928 1.06547 13.9607 3.31885 10.3053C7.05849 4.24048 12.5368 0.944961 19.659 0.533143C23.6021 0.305225 27.3134 1.25505 30.691 3.31316C35.8837 6.47858 39.0675 11.0673 40.1889 17.0587C40.3288 17.808 40.3982 18.571 40.5 19.3281V21.6757C40.4674 21.9574 40.4348 22.2385 40.4022 22.5189C39.9247 26.8083 38.2916 30.5958 35.4062 33.8102C32.3221 37.2436 28.4973 39.3858 23.9426 40.1928C23.1873 40.322 22.4241 40.4022 21.6658 40.5ZM25.2554 31.423C26.3767 31.6721 27.5792 31.8003 28.6666 31.4302C31.4992 30.4657 32.463 29.0972 32.5462 26.4923C32.5599 26.0805 32.416 25.7978 32.0374 25.6178C30.5472 24.9096 29.0668 24.1799 27.5707 23.4834C26.8066 23.1274 26.3584 23.2731 25.8516 23.9539C25.4602 24.4753 25.0835 25.0045 24.6833 25.519C24.0738 26.3016 23.6432 26.3994 22.7176 26.0208C19.4251 24.6768 16.9771 22.3702 15.1395 19.3692C14.7716 18.7666 14.7912 18.5132 15.2589 17.9723C15.6327 17.539 16.0201 17.1164 16.3929 16.6821C16.8528 16.146 17.0465 15.5679 16.6669 14.8959C16.576 14.709 16.4953 14.5173 16.4252 14.3217C15.8567 12.9826 15.298 11.6385 14.7061 10.3111C14.6082 10.0959 14.3861 9.83964 14.1777 9.79073C13.1122 9.54324 12.0378 9.52759 11.122 10.2299C10.2977 10.8753 9.67337 11.7413 9.32164 12.7272C8.58976 14.6915 8.82459 16.6048 9.63475 18.4917C10.2296 19.8798 11.1024 21.0957 11.9899 22.2979C13.473 24.3294 15.2266 26.149 17.2021 27.7063C19.338 29.3692 21.7764 30.4217 24.3448 31.1896C24.6457 31.2798 24.9509 31.3554 25.2554 31.423Z" />
    </symbol>
    

</svg>