<svg width="34" height="28" viewBox="0 0 34 28" fill="none" xmlns="http://www.w3.org/2000/svg">
<path d="M1.09194 13.2006C4.41679 11.3432 8.12821 9.79284 11.596 8.23461C17.5619 5.68236 23.5515 3.17434 29.6015 0.839404C30.7787 0.441578 32.8937 0.0525745 33.1011 1.82179C32.9875 4.32621 32.5203 6.81595 32.1999 9.3057C31.3866 14.7809 30.4466 20.2373 29.5299 25.6945C29.2141 27.5123 26.969 28.4532 25.5324 27.2899C22.0801 24.9248 18.6012 22.5826 15.1929 20.1625C14.0764 19.0119 15.1117 17.3596 16.1088 16.5379C18.9523 13.6957 21.9679 11.281 24.6627 8.29194C25.3896 6.51157 23.2418 8.012 22.5333 8.47179C18.6406 11.1926 14.8431 14.0794 10.739 16.4706C8.64258 17.6411 6.19919 16.6408 4.10374 15.9877C2.22494 15.1988 -0.528251 14.4038 1.09175 13.2009L1.09194 13.2006Z" fill="#F8F7F7"/>
</svg>
