<svg width="100" height="18" viewBox="0 0 100 18" fill="none" xmlns="http://www.w3.org/2000/svg">
<path d="M49.2588 17.1038C49.0308 14.0631 48.3086 12.0867 47.0924 11.1745C45.8761 10.1862 44.2417 9.69213 42.1893 9.69213H0V7.41163H42.1893C44.2417 7.41163 45.8761 6.95553 47.0924 6.04333C48.3086 5.05511 49.0308 3.04067 49.2588 0H50.6271C50.8552 3.04067 51.5774 5.05511 52.7936 6.04333C54.0099 6.95553 55.6442 7.41163 57.6967 7.41163H100V9.69213H57.6967C55.6442 9.69213 54.0099 10.1862 52.7936 11.1745C51.5774 12.0867 50.8552 14.0631 50.6271 17.1038H49.2588Z" fill="#2B2B2B"/>
</svg>
