<svg width="33" height="33" viewBox="0 0 33 33" fill="none" xmlns="http://www.w3.org/2000/svg">
<g clip-path="url(#clip0_83_688)">
<path fill-rule="evenodd" clip-rule="evenodd" d="M32.0052 8.30523C32.23 7.56586 32.0052 7.02148 30.9286 7.02148H27.374C26.4694 7.02148 26.0523 7.49138 25.8261 8.01003C25.8261 8.01003 24.0183 12.3379 21.4576 15.1492C20.6289 15.9644 20.2524 16.223 19.8001 16.223C19.574 16.223 19.2341 15.9644 19.2341 15.2237V8.30523C19.2341 7.4169 18.9849 7.02148 18.232 7.02148H12.642C12.0773 7.02148 11.7374 7.43315 11.7374 7.8245C11.7374 8.66544 13.0184 8.86044 13.1498 11.2275V16.3706C13.1498 17.4987 12.9426 17.7031 12.4903 17.7031C11.2851 17.7031 8.35333 13.3549 6.61323 8.37971C6.27604 7.41148 5.93479 7.02148 5.02615 7.02148H1.46875C0.453125 7.02148 0.25 7.49138 0.25 8.01003C0.25 8.93357 1.45521 13.5215 5.86302 19.5895C8.80156 23.7332 12.9385 25.9798 16.7072 25.9798C18.9673 25.9798 19.2463 25.4815 19.2463 24.6216V21.4894C19.2463 20.4914 19.4602 20.2923 20.1766 20.2923C20.7047 20.2923 21.6079 20.5523 23.7177 22.5497C26.1281 24.9181 26.5249 25.9798 27.8818 25.9798H31.4365C32.4521 25.9798 32.9613 25.4815 32.6688 24.4956C32.3465 23.5152 31.1954 22.092 29.6693 20.4034C28.8405 19.4419 27.5974 18.406 27.2196 17.8873C26.6928 17.2224 26.8431 16.9259 27.2196 16.3341C27.2196 16.3341 31.5529 10.3405 32.0039 8.30523H32.0052Z" fill="#FAFAFA"/>
</g>
<defs>
<clipPath id="clip0_83_688">
<rect width="32.5" height="32.5" fill="white" transform="translate(0.25 0.25)"/>
</clipPath>
</defs>
</svg>
