<svg width="49" height="45" viewBox="0 0 49 45" fill="none" xmlns="http://www.w3.org/2000/svg">
<path fill-rule="evenodd" clip-rule="evenodd" d="M21.8208 0H13.9063C9.31767 0 5.31784 3.12297 4.20492 7.57464L0.151749 23.7873C-0.637184 26.9431 1.74961 30 5.00246 30H17.3486L14.0814 35.6008C11.6509 39.7674 14.6564 45 19.4801 45H22.3486L32.0192 28.0764C32.235 27.6987 32.3486 27.2712 32.3486 26.8361V6.33796C32.3486 5.50208 31.9308 4.7215 31.2353 4.25783L27.3678 1.6795C25.7252 0.584377 23.7951 0 21.8208 0ZM43.5986 30H41.0986C38.3372 30 36.0986 27.7614 36.0986 25V7.5C36.0986 4.73857 38.3372 2.5 41.0986 2.5H43.5986C46.3601 2.5 48.5986 4.73857 48.5986 7.5V25C48.5986 27.7614 46.3601 30 43.5986 30Z" fill="#BC0808"/>
</svg>
