<svg width="52" height="45" viewBox="0 0 52 45" fill="none" xmlns="http://www.w3.org/2000/svg">
<path fill-rule="evenodd" clip-rule="evenodd" d="M3.77915 3.29228C3.026 2.53912 3.026 1.31802 3.77915 0.564866C4.53231 -0.188289 5.75341 -0.188289 6.50656 0.564866L47.6494 41.7077C48.4026 42.4609 48.4026 43.682 47.6494 44.4351C46.8963 45.1883 45.6752 45.1883 44.922 44.4351L37.6532 37.1663C34.0294 39.1394 29.983 40.5 25.7143 40.5C15.903 40.5 7.26555 33.312 2.23639 28.0206C-0.745463 24.8833 -0.745461 20.1167 2.23639 16.9794C4.37021 14.7343 7.1536 12.1478 10.4006 9.91374L3.77915 3.29228ZM19.0681 18.5812C18.3894 19.7297 18 21.0694 18 22.5C18 26.7605 21.4538 30.2143 25.7143 30.2143C27.1449 30.2143 28.4846 29.8249 29.6331 29.1462L19.0681 18.5812ZM25.7143 4.5C35.5256 4.5 44.163 11.688 49.1922 16.9794C52.174 20.1167 52.174 24.8833 49.1922 28.0206C48.0606 29.2112 46.7463 30.4978 45.2771 31.777L19.0612 5.56107C21.1942 4.8923 23.4222 4.5 25.7143 4.5Z" fill="#BC0808"/>
</svg>
